<?xml version="1.0" encoding="UTF-8" standalone="no"?><!DOCTYPE svg PUBLIC "-//W3C//DTD SVG 1.1//EN" "http://www.w3.org/Graphics/SVG/1.1/DTD/svg11.dtd"><svg width="100%" height="100%" viewBox="0 0 2253 289" version="1.1" xmlns="http://www.w3.org/2000/svg" xmlns:xlink="http://www.w3.org/1999/xlink" xml:space="preserve" xmlns:serif="http://www.serif.com/" style="fill-rule:evenodd;clip-rule:evenodd;stroke-linejoin:round;stroke-miterlimit:2;"><g><path d="M488.375,75.25c-10.984,-12.986 -27.077,-20.591 -44.083,-20.833c-19.667,-0 -42.417,9.5 -42.417,32.916c-0,22.042 18.667,28.5 45.833,36.959c30.834,9.708 70.209,23.208 70.209,70.375c-0,51.583 -27.917,75 -75,76.666c-53.667,1.792 -87.167,-33.625 -91.667,-62.75l45.833,0c5.167,17.084 20.209,27.084 46.417,26.459c20,-0.459 30.917,-18.625 30.917,-35.625c-0,-25 -25,-32.209 -55.292,-41.667c-29.167,-9.167 -60.708,-23.417 -60.708,-68.208c-0,-48.834 44.458,-70.584 87.875,-70.584c24.083,0 51.583,8.334 69.875,25.792l-27.792,30.5Z" style="fill:#1c2137;fill-rule:nonzero;"/><path d="M588.25,62.792l-65.292,-0l0,-37.125l173.334,-0l-0,37.5l-65.292,-0l-0,202.5l-42.75,-0l-0,-202.875Z" style="fill:#1c2137;fill-rule:nonzero;"/><path d="M717.167,25.667l159.083,-0l-0,37.5l-116.333,-0l-0,60.708l110.25,0l-0,35.958l-110.25,0l-0,67.834l122.458,-0l-0,38l-165.208,-0l-0,-240Z" style="fill:#1c2137;fill-rule:nonzero;"/><path d="M901.708,25.667l83.334,-0c45.125,-0 88.541,18 88.541,68.875c0,34.625 -21.375,57.333 -54.958,64.791l64.25,106.334l-51.583,-0l-55.625,-101.75l-31.209,-0l0,101.75l-42.75,-0l0,-240Zm77.709,103.458c24.083,0 51.583,-5.75 51.583,-34.958c0,-26.125 -25.792,-32.584 -47.833,-32.584l-38.667,0l0,67.5l34.917,0.042Z" style="fill:#1c2137;fill-rule:nonzero;"/><path d="M1102.04,25.667l56.666,-0l111.625,179.791l0.667,0l0,-179.791l42.75,-0l0,240l-54.167,-0l-114.125,-185.542l-0.666,0l-0,185.542l-42.75,-0l-0,-240Z" style="fill:#1c2137;fill-rule:nonzero;"/><path d="M1329.88,25.667l44.75,-0l44.417,176.416l0.666,0l50.584,-176.416l42.166,-0l49.625,176.416l0.625,0l45.459,-176.416l47.625,-0l-71.209,240l-39.583,-0l-53.917,-180.125l-0.666,-0l-53.834,180.125l-39.5,-0l-67.208,-240Z" style="fill:#1c2137;fill-rule:nonzero;"/><path d="M1700.29,25.667l50.291,-0l85.792,240l-44.417,-0l-20.375,-54.959l-94.75,0l-19.75,54.959l-43.333,-0l86.542,-240Zm57.708,148.583l-33.625,-97.708l-34.25,97.708l67.875,0Z" style="fill:#1c2137;fill-rule:nonzero;"/><path d="M1857.17,25.667l42.75,-0l-0,202l81.291,-0l0,38l-124.041,-0l-0,-240Z" style="fill:#1c2137;fill-rule:nonzero;"/><path d="M2002.42,25.667l73.625,-0c54.166,-0 114.666,29.875 114.666,120.083c-0.041,84.083 -60.291,119.917 -114.708,119.917l-73.583,-0l-0,-240Zm67.75,202.875c38.125,-0 80.958,-18 80.958,-82.792c-0,-68.875 -42.833,-83.333 -80.958,-83.333l-30.792,-0l-0,166.25l30.792,-0.125Z" style="fill:#1c2137;fill-rule:nonzero;"/><path d="M176.833,1.75l-38.666,62.75l77.375,0l-38.709,-62.75Zm49.75,80.667l-99.5,-0l-77.375,125.458l254.167,0l-77.292,-125.458Zm88.417,143.25l-276.25,-0l-38.75,62.875l353.708,-0l-38.708,-62.875Z" style="fill:#1c2137;fill-rule:nonzero;"/><path d="M2221.17,0c5.436,0.048 10.772,1.482 15.5,4.167c4.918,2.662 8.969,6.684 11.666,11.583c5.588,9.713 5.588,21.704 0,31.417c-2.702,4.892 -6.732,8.922 -11.625,11.625c-9.681,5.54 -21.61,5.54 -31.291,-0c-4.895,-2.699 -8.927,-6.73 -11.625,-11.625c-5.597,-9.711 -5.597,-21.706 -0,-31.417c2.697,-4.899 6.748,-8.921 11.666,-11.583c4.79,-2.719 10.201,-4.155 15.709,-4.167Zm-0,6.167c-4.376,-0.002 -8.68,1.117 -12.5,3.25c-3.948,2.137 -7.202,5.362 -9.375,9.291c-4.504,7.818 -4.504,17.474 -0,25.292c2.17,3.927 5.406,7.163 9.333,9.333c7.725,4.461 17.275,4.461 25,0c3.905,-2.185 7.124,-5.418 9.292,-9.333c4.512,-7.816 4.512,-17.476 -0,-25.292c-2.173,-3.929 -5.427,-7.154 -9.375,-9.291c-3.77,-2.115 -8.012,-3.247 -12.334,-3.292l-0.041,0.042Zm-14.25,42.083l-0,-33.333l17.5,-0c1.809,0.08 3.583,0.534 5.208,1.333c1.315,0.764 2.396,1.874 3.125,3.208c0.84,1.456 1.272,3.112 1.25,4.792c0.04,2.285 -0.812,4.499 -2.375,6.167c-1.768,1.8 -4.114,2.921 -6.625,3.166c0.839,0.29 1.627,0.712 2.333,1.25c0.837,0.782 1.591,1.648 2.25,2.584c0.25,0.333 1.07,1.722 2.459,4.166l3.958,6.709l-8.333,-0l-2.792,-5.417c-1.116,-2.561 -2.699,-4.892 -4.667,-6.875c-1.352,-0.982 -2.996,-1.481 -4.666,-1.417l-1.792,0l0,13.709l-6.833,-0.042Zm6.833,-19l2.75,0c2.44,0.115 4.885,-0.039 7.292,-0.458c1.849,-0.517 3.112,-2.249 3.041,-4.167c0.012,-0.897 -0.265,-1.774 -0.791,-2.5c-0.567,-0.759 -1.375,-1.303 -2.292,-1.542c-2.392,-0.425 -4.824,-0.578 -7.25,-0.458l-2.75,0l0,9.125Z" style="fill:#1c2137;fill-rule:nonzero;"/></g></svg>