<?xml version="1.0" encoding="UTF-8" standalone="no"?><!DOCTYPE svg PUBLIC "-//W3C//DTD SVG 1.1//EN" "http://www.w3.org/Graphics/SVG/1.1/DTD/svg11.dtd"><svg width="100%" height="100%" viewBox="0 0 1152 376" version="1.1" xmlns="http://www.w3.org/2000/svg" xmlns:xlink="http://www.w3.org/1999/xlink" xml:space="preserve" xmlns:serif="http://www.serif.com/" style="fill-rule:evenodd;clip-rule:evenodd;stroke-linejoin:round;stroke-miterlimit:2;"><g><path d="M758.186,87.403l-49.447,-0l-0,213.922l49.447,-0l0,-213.922Zm-758.07,170.742c0,25.304 7.429,30.876 32.036,30.876c24.608,-0 32.036,-6.268 32.036,-30.876c0,-24.607 -8.589,-31.223 -32.036,-31.223c-23.447,0 -32.036,6.384 -32.036,31.223Zm170.395,-96.339c-5.572,-3.367 -8.241,-8.59 -8.241,-14.858c0,-14.857 9.285,-25.652 39.812,-25.652c28.322,-0 42.367,9.286 45.733,30.062l49.796,0c-5.92,-42.714 -33.894,-69.179 -95.18,-69.179c-42.831,0 -69.876,15.09 -81.483,38.537c-7.429,13.58 -10.099,20.196 -30.644,20.196c-10.562,0 -23.678,-8.009 -34.241,-16.25c-5.107,-4.063 -12.768,-5.572 -24.027,-5.572c-23.447,0 -32.036,6.268 -32.036,31.224c0,24.955 7.429,31.223 32.036,31.223c10.795,-0 18.34,-1.508 23.447,-5.455l-0,0.232c11.607,-8.589 24.259,-17.643 34.821,-17.643c20.081,0 23.447,4.528 29.715,17.179c4.527,9.17 11.259,16.134 20.313,20.894c16.018,8.589 35.75,11.955 55.018,14.856c20.429,3.018 39.116,5.572 49.911,11.839c5.572,3.366 8.242,8.59 8.242,14.858c0,17.062 -12.304,27.51 -43.527,27.51c-31.224,-0 -47.939,-10.099 -52.465,-35.287l-52.814,0c6.268,49.911 38.304,76.26 104.118,76.26c65.812,-0 92.974,-30.179 92.974,-71.385c0,-23.795 -10.098,-38.304 -26.001,-46.894c-16.018,-8.589 -35.75,-11.955 -55.017,-14.856c-20.43,-3.018 -39.466,-5.572 -50.26,-11.839Zm358.896,53.973l0,-1.161l-50.955,-0l-0,0.348c-4.876,32.733 -22.635,49.099 -53.975,49.099c-35.75,0 -57.224,-23.794 -57.224,-66.162l-0,-4.874c-0,-45.384 23.447,-69.18 57.688,-69.18c29.715,0 48.752,14.858 53.162,48.286l0,1.161l50.956,0l-0,-0.696c-4.875,-62.447 -45.384,-90.421 -104.582,-90.421c-41.322,0 -74.75,17.527 -93.787,50.26c-9.285,16.365 -14.161,36.795 -14.161,60.59l0,5.571c0,69.876 39.117,108.295 107.484,108.295c59.197,0 100.403,-27.856 105.278,-91.116m132.439,-80.787l21.241,0l-0,-49.446l-14.51,-0c-40.508,-0 -62.446,16.714 -71.035,52.117l-6.269,-50.26l-39.465,-0l0,213.922l47.939,-0l0,-98.895c0,-33.428 5.572,-52.116 23.446,-60.589c8.938,-4.41 21.59,-6.732 38.653,-6.732m104.465,-103.073c-0,-23.795 -10.795,-32.036 -32.384,-32.036c-21.589,-0 -32.384,8.241 -32.384,32.036c0,23.795 8.937,32.384 32.384,32.384c21.938,0 32.384,-9.286 32.384,-32.384Zm189.314,166.216c-0,42.366 -21.241,66.162 -57.687,66.162c-36.447,-0 -57.224,-26.349 -57.224,-67.67l-0,-3.715c-0,-42.367 23.099,-69.18 58.384,-69.18c33.429,0 56.527,24.143 56.527,69.877l-0,4.526Zm37.608,59.546c7.777,-16.019 11.956,-35.287 11.956,-58.734l-0,-5.223c-0,-72.197 -35.287,-111.546 -91.118,-111.546c-37.258,0 -62.099,19.385 -73.706,48.751l-5.223,-43.527l-40.509,-0l-0,287.512l47.242,-0l-0,-111.198c12.651,26 36.099,42.018 71.384,42.018c35.286,-0 64.304,-16.018 79.974,-47.938m101.911,-50.26l0,-76.955l56.528,-0l0,-43.179l-56.528,-0l0,-57.804l-41.669,-0c0,6.268 -0.349,19.035 -0.697,28.321c-1.161,17.527 -3.366,25.652 -10.446,29.018c-3.366,1.509 -8.241,2.206 -15.205,2.206l-19.037,-0l-0,41.322l41.67,-0l0,85.197c0,43.527 6.733,66.974 28.322,77.769c10.446,4.875 26,7.777 46.081,7.777l27.509,-0l0,-45.385l-15.205,-0c-23.796,-0 -34.939,-2.554 -38.304,-16.715c-1.858,-7.08 -3.019,-17.526 -3.019,-31.572Z" style="fill:#1c2137;fill-rule:nonzero;"/></g></svg>