<?xml version="1.0" encoding="UTF-8" standalone="no"?><!DOCTYPE svg PUBLIC "-//W3C//DTD SVG 1.1//EN" "http://www.w3.org/Graphics/SVG/1.1/DTD/svg11.dtd"><svg width="100%" height="100%" viewBox="0 0 1298 470" version="1.1" xmlns="http://www.w3.org/2000/svg" xmlns:xlink="http://www.w3.org/1999/xlink" xml:space="preserve" xmlns:serif="http://www.serif.com/" style="fill-rule:evenodd;clip-rule:evenodd;stroke-linejoin:round;stroke-miterlimit:2;"><g><path d="M203.511,0l-203.511,117.69l0,103.806l203.511,-118.32l114.535,65.628l-22.876,13.252l-91.659,-52.692l-79.827,46.066l182.372,105.542l100.967,-59.16l-0,-104.122l-203.512,-117.69Z" style="fill:#1c2137;fill-rule:nonzero;"/><path d="M203.511,469.652l203.512,-117.216l-0,-104.122l-203.512,118.32l-114.534,-65.628l22.875,-13.252l91.659,52.692l79.67,-46.066l-182.214,-105.542l-100.967,59.16l-0,104.438l203.511,117.216Z" style="fill:#1c2137;fill-rule:nonzero;"/><path d="M627.411,156.183c18.301,-26.819 45.593,-40.229 81.878,-40.229c32.972,0 59.634,11.517 80.143,34.392c20.509,22.56 30.605,50.483 30.605,83.771c0,33.287 -10.254,61.211 -30.605,83.771c-20.509,22.875 -47.96,34.392 -82.351,34.392c-34.55,-0 -61.054,-13.568 -79.67,-40.702l0,127.786l-34.391,-0l-0,-319.781l34.391,-0l0,36.6Zm77.303,-9.15c-24.768,0 -44.331,8.519 -58.529,25.715c-13.725,16.249 -20.667,36.601 -20.667,61.369c0,24.768 6.942,45.12 20.667,61.369c14.356,17.038 33.918,25.715 58.529,25.715c24.453,-0 44.173,-8.519 59.476,-25.715c14.356,-16.092 21.455,-36.601 21.455,-61.369c0,-24.768 -7.099,-45.12 -21.455,-61.369c-15.145,-17.196 -35.023,-25.715 -59.476,-25.715Z" style="fill:#1c2137;fill-rule:nonzero;"/><path d="M891.506,348.494l0,-198.778l-51.43,-0l0,-30.133l51.43,0l0,-81.878l34.392,0l-0,81.878l51.114,0l0,30.133l-51.114,-0l-0,198.62l-34.392,-0l0,0.158Z" style="fill:#1c2137;fill-rule:nonzero;"/><path d="M1123.1,321.043c14.672,0 27.608,-4.102 38.967,-12.305c11.359,-8.204 19.562,-18.931 24.768,-32.026l37.074,0c-7.099,22.56 -19.878,40.703 -38.494,54.428c-19.562,14.041 -42.753,20.982 -69.572,20.982c-33.603,0 -60.896,-11.517 -81.878,-34.392c-20.509,-22.244 -30.606,-50.168 -30.606,-83.771c0,-33.603 10.255,-61.526 30.606,-83.77c20.982,-22.875 48.433,-34.392 81.878,-34.392c26.819,0 50.01,7.099 69.572,20.982c18.616,13.725 31.395,31.867 38.494,54.427l-37.074,0c-5.206,-13.094 -13.409,-23.822 -24.768,-32.025c-11.359,-8.203 -24.295,-12.305 -38.967,-12.305c-14.672,-0 -27.135,2.366 -37.232,6.941c-10.254,4.575 -18.773,10.885 -25.872,18.773c-14.988,16.407 -22.402,36.916 -22.402,61.369c-0,24.453 7.414,44.804 22.402,61.369c15.302,17.038 36.285,25.715 63.104,25.715Z" style="fill:#1c2137;fill-rule:nonzero;"/><path d="M1272.97,119.584c3.471,-0 6.626,0.631 9.781,1.893c2.998,1.262 5.68,3.155 7.888,5.364c2.209,2.209 4.102,4.89 5.364,7.888c1.262,2.997 1.893,6.31 1.893,9.781c0,3.471 -0.631,6.626 -1.893,9.624c-1.262,2.997 -3.155,5.679 -5.364,7.888c-2.208,2.209 -4.89,4.102 -7.888,5.364c-2.997,1.262 -6.31,1.893 -9.781,1.893c-3.471,-0 -6.626,-0.631 -9.623,-1.893c-2.998,-1.262 -5.68,-3.155 -7.888,-5.364c-2.209,-2.209 -4.102,-4.891 -5.364,-7.888c-1.262,-2.998 -1.893,-6.311 -1.893,-9.624c-0,-3.471 0.631,-6.626 1.893,-9.781c1.262,-2.998 3.155,-5.679 5.364,-7.888c2.208,-2.209 4.89,-4.102 7.888,-5.364c2.997,-1.262 6.31,-1.893 9.623,-1.893Zm0,46.382c5.995,-0 11.043,-2.051 15.145,-6.311c1.893,-1.893 3.471,-4.259 4.575,-6.784c1.104,-2.524 1.735,-5.363 1.735,-8.361c0,-2.997 -0.631,-5.679 -1.735,-8.361c-1.104,-2.524 -2.682,-4.891 -4.575,-6.784c-4.102,-4.102 -9.15,-6.31 -15.145,-6.31c-5.995,-0 -11.043,2.051 -15.145,6.31c-4.102,4.26 -6.31,9.308 -6.31,15.145c-0,2.84 0.631,5.68 1.735,8.204c1.104,2.524 2.682,4.89 4.575,6.784c4.26,4.259 9.308,6.468 15.145,6.468Zm12.305,-27.135c0,1.577 -0.473,3.155 -1.419,4.417c-0.947,1.262 -2.367,2.209 -3.945,2.682c2.682,0.789 4.26,2.997 4.891,6.626c0.158,0.946 0.158,1.735 0.158,2.524l-0,3.471l-5.049,0l0,-2.84c0,-2.051 -0.157,-3.628 -0.631,-4.575c-0.946,-1.893 -2.524,-2.84 -4.89,-2.84l-7.099,0l-0,10.255l-5.049,0l0,-27.766l11.832,-0c3.944,-0 6.784,0.789 8.677,2.209c1.736,1.419 2.524,3.47 2.524,5.837Zm-11.674,5.048c2.051,0 3.629,-0.315 4.891,-1.104c1.262,-0.789 1.893,-1.893 1.893,-3.313c-0,-1.42 -0.474,-2.524 -1.42,-3.313c-0.947,-0.789 -2.84,-1.262 -5.364,-1.262l-6.153,-0l0,8.992l6.153,0Z" style="fill:#1c2137;fill-rule:nonzero;"/></g></svg>