<?xml version="1.0" encoding="UTF-8" standalone="no"?><!DOCTYPE svg PUBLIC "-//W3C//DTD SVG 1.1//EN" "http://www.w3.org/Graphics/SVG/1.1/DTD/svg11.dtd"><svg width="100%" height="100%" viewBox="0 0 1737 278" version="1.1" xmlns="http://www.w3.org/2000/svg" xmlns:xlink="http://www.w3.org/1999/xlink" xml:space="preserve" xmlns:serif="http://www.serif.com/" style="fill-rule:evenodd;clip-rule:evenodd;stroke-linejoin:round;stroke-miterlimit:2;"><g><path d="M255.235,34.47l-102.209,235.56c-1.144,2.555 -3.662,4.234 -6.46,4.307l-36.278,0c-2.798,-0.073 -5.317,-1.752 -6.461,-4.307l-103.203,-235.56c-0.411,-0.917 -0.624,-1.911 -0.624,-2.916c-0,-2.825 1.68,-5.395 4.269,-6.527c0.931,-0.171 1.885,-0.171 2.816,0l35.284,0c2.823,-0.011 5.385,1.697 6.461,4.307l74.544,172.778c1.084,2.577 3.619,4.261 6.414,4.261c0.987,-0 1.963,-0.21 2.863,-0.617c1.671,-0.709 3.027,-2.006 3.81,-3.644l75.041,-173.44c1.185,-2.572 3.796,-4.204 6.627,-4.142l30.977,0c3.908,0 7.123,3.216 7.123,7.124c-0.08,1.009 -0.422,1.98 -0.994,2.816Z" style="fill:#1c2137;fill-rule:nonzero;"/><path d="M406.643,207.579l43.733,63.611c1.28,1.955 3.462,3.14 5.798,3.147l32.137,0c3.846,-0.087 6.961,-3.274 6.961,-7.121c0,-1.485 -0.464,-2.935 -1.329,-4.143l-42.407,-61.458l-1.491,-2.816l-0,-0.994c-1.654,-3.501 -0.166,-7.742 3.313,-9.442c12.588,-6.007 23.342,-15.274 31.143,-26.836c9.008,-14.43 13.562,-31.202 13.087,-48.206c0.31,-16.574 -4.116,-32.898 -12.756,-47.046c-8.873,-13.881 -21.759,-24.744 -36.941,-31.143c-17.648,-7.444 -36.677,-11.058 -55.825,-10.602c-0,0 -93.265,0 -93.266,0c-3.816,0 -6.957,3.141 -6.957,6.958c-0,0.055 0.001,0.11 0.002,0.166l-0,235.395c-0.001,0.055 -0.002,0.111 -0.002,0.167c-0,3.846 3.115,7.033 6.959,7.121l31.806,0c3.845,-0.088 6.96,-3.275 6.96,-7.121c-0,-0.056 -0.001,-0.112 -0.002,-0.167l-0,-58.476c-0,-3.908 3.215,-7.124 7.123,-7.124l53.506,0c2.439,-0.043 4.744,1.14 6.129,3.148l2.319,2.982Zm29.321,-131.033c10.526,9.22 16.218,22.807 15.406,36.775c0.788,14.013 -4.895,27.64 -15.406,36.941c-13.188,9.545 -29.311,14.177 -45.555,13.087l-46.383,-0c-3.936,-0.09 -7.124,-3.352 -7.123,-7.289l-0,-85.146c-0.001,-3.937 3.187,-7.2 7.123,-7.289l46.383,-0c16.224,-1.137 32.345,3.435 45.555,12.921Z" style="fill:#1c2137;"/><path d="M730.995,267.38l0,-249.476c0,-3.816 -3.141,-6.957 -6.957,-6.957l-30.15,-0c-0.055,-0.002 -0.11,-0.002 -0.165,-0.002c-3.817,-0 -6.958,3.141 -6.958,6.957c0,0.001 0,83.658 0,83.658c-0.027,0.692 -0.325,1.346 -0.828,1.822c-1.016,0.962 -2.628,0.962 -3.644,-0c-6.339,-5.947 -13.688,-10.715 -21.701,-14.081c-11.072,-4.373 -22.884,-6.567 -34.788,-6.46c-17.341,-0.428 -34.49,3.745 -49.696,12.093c-14.459,7.857 -26.363,19.703 -34.29,34.124c-8.028,15.59 -11.854,33.006 -11.099,50.525c-0.358,17.796 3.925,35.382 12.424,51.022c7.764,14.403 19.417,26.343 33.628,34.456c15.206,8.348 32.355,12.521 49.696,12.093c12.204,0.113 24.31,-2.195 35.616,-6.792c8.225,-3.374 15.71,-8.327 22.032,-14.578c0.643,-0.227 1.345,-0.227 1.988,0c1.665,-0.002 3.059,1.318 3.147,2.982l0,9.608c-0.001,0.055 -0.002,0.11 -0.002,0.166c0,3.816 3.141,6.957 6.958,6.957c0,0 28.494,0 28.494,0c3.594,-0.291 6.396,-3.329 6.396,-6.935c0,-0.396 -0.034,-0.792 -0.101,-1.182Zm-71.231,-35.45c-17.913,9.475 -39.405,9.475 -57.317,-0c-8.537,-4.953 -15.535,-12.18 -20.21,-20.873c-5.134,-9.621 -7.702,-20.406 -7.454,-31.308c-0.142,-10.68 2.423,-21.224 7.454,-30.646c4.474,-9.007 11.505,-16.499 20.21,-21.535c17.851,-9.712 39.466,-9.712 57.317,-0c8.643,5.061 15.614,12.551 20.044,21.535c5.113,9.569 7.681,20.295 7.454,31.143c0.135,10.679 -2.43,21.221 -7.454,30.646c-4.606,8.732 -11.546,16.016 -20.044,21.038Z" style="fill:#1c2137;"/><path d="M797.752,84.166l29.49,0c3.817,0 6.958,3.141 6.958,6.958c-0,0.055 -0.001,0.11 -0.002,0.165l-0,175.925c0.001,3.846 -3.113,7.034 -6.958,7.123l-29.486,0c-3.845,-0.089 -6.959,-3.277 -6.958,-7.123l0,-175.925c-0.001,-0.055 -0.002,-0.11 -0.002,-0.165c0,-3.817 3.141,-6.958 6.958,-6.958Z" style="fill:#1c2137;fill-rule:nonzero;"/><path d="M811.172,54.348c-7.55,0.192 -14.878,-2.608 -20.376,-7.786c-5.379,-4.979 -8.343,-12.054 -8.117,-19.381c-0.226,-7.327 2.738,-14.403 8.117,-19.382c5.498,-5.177 12.826,-7.977 20.376,-7.785c7.495,-0.229 14.797,2.442 20.375,7.454c5.324,4.669 8.301,11.475 8.117,18.553c0.177,7.529 -2.691,14.82 -7.951,20.21c-5.465,5.372 -12.881,8.302 -20.541,8.117Z" style="fill:#1c2137;fill-rule:nonzero;"/><path d="M937.566,105.204c13.687,-14.832 32.994,-23.252 53.175,-23.191l1.491,-0c0.111,-0.006 0.222,-0.008 0.333,-0.008c3.758,-0 6.871,3.043 6.956,6.799l-0,27.168c0.001,0.055 0.002,0.11 0.002,0.165c0,3.726 -3.066,6.792 -6.792,6.792c-0.001,0 -3.315,0 -3.315,0c-14.925,-0.921 -29.545,4.637 -40.088,15.24c-10.281,12.272 -15.341,28.105 -14.081,44.065l0,85.312c0.001,3.936 -3.187,7.199 -7.123,7.288l-29.818,0c-3.936,-0.089 -7.124,-3.352 -7.123,-7.288l-0,-176.919c-0.021,-0.221 -0.031,-0.442 -0.031,-0.663c0,-3.908 3.216,-7.123 7.123,-7.123c0.01,-0 0.021,-0 0.031,-0c0,-0 27.831,-0 27.832,-0c3.817,-0 6.957,3.141 6.957,6.957c0,0.056 -0,0.111 -0.001,0.166l-0,13.087c-0,1.363 1.121,2.485 2.484,2.485c0.776,-0.025 1.503,-0.388 1.988,-0.994l0,0.662Z" style="fill:#1c2137;fill-rule:nonzero;"/><path d="M1216.86,187.866l-0,-6.461c0.385,-17.706 -3.779,-35.218 -12.093,-50.856c-7.532,-14.322 -19.037,-26.173 -33.131,-34.124c-15.21,-8.355 -32.346,-12.581 -49.696,-12.259c-17.354,-0.174 -34.466,4.104 -49.697,12.424c-14.572,7.952 -26.626,19.834 -34.787,34.291c-8.412,15.194 -12.696,32.331 -12.424,49.696c-0.218,17.401 4.184,34.552 12.755,49.696c8.378,14.817 20.864,26.901 35.947,34.788c16.931,8.549 35.703,12.816 54.666,12.424c14.994,0.207 29.891,-2.435 43.899,-7.786c10.096,-3.888 19.287,-9.808 27.001,-17.394l1.326,-1.325c2.136,-2.331 2.136,-5.952 -0,-8.283l-14.578,-16.565c-1.256,-1.586 -3.171,-2.512 -5.194,-2.512c-1.628,-0 -3.2,0.6 -4.414,1.684c-12.862,10.978 -29.31,16.874 -46.218,16.565c-14.54,0.554 -28.866,-3.697 -40.751,-12.093c-8.095,-5.781 -14.271,-13.862 -17.725,-23.191l0,-0.829c-0.152,-0.709 -0.152,-1.443 0,-2.153c0,-3.726 3.066,-6.792 6.792,-6.792l132.524,0c3.467,-0.525 6.056,-3.536 6.056,-7.043c0,-0.643 -0.087,-1.283 -0.258,-1.902Zm-130.867,-55.329c10.01,-8.363 22.742,-12.784 35.781,-12.424c13.112,-0.512 25.949,3.925 35.947,12.424c7.543,6.483 12.969,15.083 15.572,24.683c0.093,0.604 0.093,1.218 -0,1.822c-0.09,3.663 -3.128,6.627 -6.792,6.626l-91.939,0c-3.532,-1.105 -5.544,-4.905 -4.472,-8.448c2.794,-9.595 8.321,-18.173 15.903,-24.683Z" style="fill:#1c2137;"/><path d="M1347.39,276.988c-18.433,0.443 -36.696,-3.653 -53.175,-11.927c-15.278,-7.686 -28.041,-19.587 -36.775,-34.291c-8.882,-15.039 -13.467,-32.231 -13.252,-49.696c-0.267,-17.471 4.322,-34.678 13.252,-49.696c8.771,-14.574 21.457,-26.399 36.61,-34.125c16.472,-8.505 34.806,-12.776 53.34,-12.424c17.241,-0.409 34.318,3.461 49.697,11.264c10.463,5.503 19.487,13.392 26.339,23.026l2.153,3.148c0.658,1.102 1.005,2.363 1.005,3.647c-0,2.512 -1.329,4.845 -3.489,6.126l-4.307,2.485l-16.566,9.939l-1.159,0c-3.093,1.819 -7.102,1.032 -9.277,-1.822c-0.581,-0.89 -1.247,-1.722 -1.988,-2.485c-4.183,-4.87 -9.24,-8.915 -14.909,-11.927c-8.27,-4.346 -17.494,-6.566 -26.836,-6.46c-0.807,-0.036 -1.614,-0.053 -2.421,-0.053c-30.444,-0 -55.495,25.051 -55.495,55.494c0,1.123 0.035,2.245 0.103,3.366c-0.005,0.29 -0.007,0.58 -0.007,0.869c0,31.807 26.173,57.98 57.979,57.98c9.284,-0 18.434,-2.23 26.677,-6.502c5.756,-3.024 10.875,-7.13 15.075,-12.093c0.647,-0.741 1.255,-1.515 1.822,-2.319c2.175,-2.854 6.184,-3.641 9.277,-1.822l1.822,0.994l18.222,10.436l2.485,1.491c2.149,1.241 3.478,3.542 3.478,6.025c-0,1.262 -0.344,2.501 -0.994,3.583l-1.987,2.981c-7.302,9.683 -16.779,17.515 -27.665,22.861c-15.079,8.038 -31.947,12.14 -49.034,11.927Z" style="fill:#1c2137;fill-rule:nonzero;"/><path d="M1574.34,267.711c-4.398,2.664 -9.134,4.725 -14.08,6.129c-7.54,2.158 -15.351,3.218 -23.192,3.148c-17.46,0.992 -34.621,-4.967 -47.709,-16.566c-11.785,-12.909 -17.776,-30.104 -16.565,-47.542l-0,-83.656c0.001,-0.055 0.002,-0.11 0.002,-0.166c-0,-3.816 -3.141,-6.957 -6.958,-6.957c-0,-0 -16.567,-0 -16.567,-0c-0.166,0.012 -0.333,0.018 -0.499,0.018c-3.817,-0 -6.958,-3.141 -6.958,-6.958c0,-0.061 0.001,-0.122 0.003,-0.183l-0,-21.204c-0.002,-0.055 -0.002,-0.11 -0.002,-0.166c-0,-3.816 3.14,-6.957 6.957,-6.957c0.001,-0 16.569,-0 16.569,-0c3.817,-0 6.958,-3.141 6.958,-6.958c-0,-0.055 -0.001,-0.11 -0.002,-0.165l-0,-28.99c-0.001,-0.055 -0.002,-0.11 -0.002,-0.165c-0,-3.817 3.141,-6.958 6.957,-6.958l29.822,0c3.817,0 6.958,3.141 6.958,6.958c-0,0.055 -0.001,0.11 -0.002,0.165l-0,28.99c-0.002,0.055 -0.002,0.11 -0.002,0.165c-0,3.817 3.141,6.958 6.957,6.958c0.001,-0 36.116,-0 36.117,-0c3.817,-0 6.957,3.141 6.957,6.957c0,0.056 -0,0.111 -0.002,0.166l0,21.204c0.002,0.055 0.002,0.11 0.002,0.165c0,3.817 -3.14,6.958 -6.957,6.958c-0.001,-0 -34.46,-0 -34.46,-0c-3.817,-0 -6.958,3.141 -6.958,6.957c0,0.056 0.001,0.111 0.002,0.166l0,82.827c-0.488,7.642 1.874,15.2 6.626,21.204c5.114,5.094 12.179,7.751 19.382,7.289c6.875,0.123 13.666,-1.532 19.713,-4.804c2.098,-1.128 4.748,-0.392 5.964,1.656l8.117,20.873c1.677,3.458 0.269,7.683 -3.148,9.442Z" style="fill:#1c2137;fill-rule:nonzero;"/><path d="M1735.03,180.246l-86.637,-91.442c-0.654,-0.667 -1.551,-1.044 -2.485,-1.044c-0.935,0 -1.831,0.377 -2.485,1.044c-0.772,0.659 -1.199,1.637 -1.159,2.651l-0,178.575c0.088,1.937 1.706,3.481 3.644,3.479c0.873,-0.012 1.708,-0.37 2.319,-0.994l86.637,-82.827c2.422,-2.641 2.494,-6.718 0.166,-9.442Z" style="fill:#1c2137;fill-rule:nonzero;"/></g></svg>