<?xml version="1.0" encoding="UTF-8" standalone="no"?><!DOCTYPE svg PUBLIC "-//W3C//DTD SVG 1.1//EN" "http://www.w3.org/Graphics/SVG/1.1/DTD/svg11.dtd"><svg width="100%" height="100%" viewBox="0 0 1191 521" version="1.1" xmlns="http://www.w3.org/2000/svg" xmlns:xlink="http://www.w3.org/1999/xlink" xml:space="preserve" xmlns:serif="http://www.serif.com/" style="fill-rule:evenodd;clip-rule:evenodd;stroke-linejoin:round;stroke-miterlimit:2;"><g><path d="M83.708,211.838c11.01,-16.254 28.441,-24.387 52.281,-24.387c10.836,0 21.039,1.724 30.61,5.158c9.571,3.434 17.245,7.128 23.034,11.096l0,162.544c-4.698,1.079 -10.761,2.083 -18.15,2.976c-7.413,0.905 -16.352,1.351 -26.828,1.351c-24.2,0 -43.156,-8.207 -56.88,-24.646c-13.737,-16.427 -20.592,-39.09 -20.592,-67.989c-0,-27.82 5.504,-49.85 16.525,-66.103m171.471,-211.838l-65.546,10.835l0,135.99c-7.587,-3.968 -16.625,-7.588 -27.101,-10.836c-10.476,-3.248 -22.576,-4.872 -36.287,-4.872c-20.233,-0 -38.123,3.521 -53.645,10.563c-15.534,7.041 -28.713,17.059 -39.548,30.064c-10.836,13.005 -19.055,28.626 -24.646,46.863c-5.604,18.249 -8.406,38.568 -8.406,60.959c-0,22.749 3.335,43.255 10.03,61.492c6.67,18.236 16.253,33.771 28.712,46.59c12.46,12.819 27.535,22.675 45.239,29.531c17.692,6.856 37.738,10.29 60.141,10.29c21.671,-0 42.338,-1.624 62.025,-4.873c19.687,-3.26 36.04,-6.855 49.032,-10.835l0,-411.761Zm143.577,365.431c-9.757,-5.951 -14.629,-16.699 -14.629,-32.234c-0,-7.946 1.797,-14.53 5.417,-19.774c3.608,-5.231 8.394,-9.298 14.357,-12.187c5.963,-2.888 12.633,-4.884 20.047,-5.963c7.401,-1.078 14.716,-1.624 21.944,-1.624c8.306,0 15.881,0.546 22.749,1.624c6.856,1.079 12.1,2.17 15.72,3.248l0,72.601c-10.488,2.169 -25.836,3.248 -46.057,3.248c-16.613,-0 -29.804,-2.976 -39.548,-8.939m-16.799,-231.066c-15.894,2.889 -27.994,5.777 -36.3,8.666l8.133,53.099c7.934,-2.889 18.224,-5.418 30.882,-7.588c12.633,-2.169 26.543,-3.248 41.718,-3.248c11.183,0 20.493,1.438 27.895,4.327c7.401,2.901 13.364,6.967 17.877,12.199c4.513,5.232 7.674,11.282 9.484,18.15c1.798,6.856 2.715,14.084 2.715,21.671l0,10.836c-9.038,-2.17 -17.53,-3.707 -25.464,-4.612c-7.96,-0.893 -15.535,-1.351 -22.762,-1.351c-15.535,-0 -30.436,1.537 -44.694,4.599c-14.269,3.075 -26.816,8.133 -37.651,15.175c-10.836,7.042 -19.427,16.166 -25.738,27.361c-6.322,11.195 -9.484,24.919 -9.484,41.173c0,16.984 2.79,31.241 8.393,42.796c5.604,11.567 13.365,20.964 23.308,28.18c9.93,7.228 21.931,12.459 36.027,15.707c14.084,3.249 29.606,4.885 46.59,4.885c25.639,0 48.673,-1.55 69.08,-4.612c20.394,-3.062 35.668,-5.69 45.784,-7.86l0,-171.744c0,-16.6 -1.897,-31.874 -5.69,-45.771c-3.794,-13.911 -10.117,-25.738 -18.969,-35.495c-8.852,-9.744 -20.679,-17.332 -35.482,-22.749c-14.815,-5.418 -33.052,-8.133 -54.723,-8.133c-18.063,-0 -35.035,1.45 -50.929,4.339m417.439,211.292c-11.021,16.253 -28.44,24.386 -52.28,24.386c-10.836,0 -21.039,-1.711 -30.61,-5.145c-9.571,-3.434 -17.245,-7.129 -23.022,-11.108l-0,-161.999c6.496,-1.798 13.091,-2.976 19.774,-3.521c6.682,-0.546 13.092,-0.819 19.228,-0.819c29.259,0 50.471,8.133 63.662,24.387c13.179,16.253 19.774,39.002 19.774,68.261c0,27.46 -5.504,49.305 -16.526,65.558m73.691,-128.129c-6.694,-18.237 -16.253,-33.771 -28.712,-46.59c-12.46,-12.819 -27.548,-22.663 -45.239,-29.531c-17.704,-6.856 -37.751,-10.29 -60.141,-10.29c-21.671,-0 -42.263,1.624 -61.765,4.872c-19.501,3.248 -35.94,6.682 -49.305,10.29l0,374.382l65.559,0l-0,-109.991c7.215,3.98 16.426,7.587 27.634,10.835c11.182,3.249 23.468,4.885 36.833,4.885c19.861,0 37.664,-3.62 53.372,-10.835c15.707,-7.228 28.799,-17.345 39.275,-30.35c10.476,-13.005 18.51,-28.527 24.114,-46.59c5.591,-18.051 8.393,-37.924 8.393,-59.595c-0,-22.762 -3.335,-43.255 -10.018,-61.492m250.568,-76.667c-3.248,-1.078 -7.587,-2.244 -13.005,-3.521c-5.418,-1.264 -11.022,-2.343 -16.786,-3.248c-5.79,-0.892 -11.567,-1.624 -17.345,-2.169c-5.777,-0.546 -10.835,-0.806 -15.162,-0.806c-23.121,-0 -44.16,2.083 -63.128,6.223c-18.956,4.154 -34.763,8.592 -47.396,13.278l-0,269.809l65.546,-0l-0,-227.012c3.26,-1.079 8.938,-2.343 17.071,-3.794c8.121,-1.438 15.795,-2.17 23.023,-2.17c12.645,0 23.753,1.005 33.324,2.988c9.559,1.984 17.059,3.881 22.477,5.691l11.381,-55.269Z" style="fill:#1c2137;fill-rule:nonzero;"/><path d="M1177.38,353.515c-8.493,-8.133 -18.696,-12.187 -30.61,-12.187c-12.286,-0 -22.576,4.054 -30.882,12.187c-8.319,8.132 -12.46,18.509 -12.46,31.155c0,12.645 4.141,22.935 12.46,30.882c8.306,7.935 18.596,11.914 30.882,11.914c11.914,0 22.117,-3.979 30.61,-11.914c8.48,-7.947 12.732,-18.237 12.732,-30.882c0,-12.646 -4.252,-23.023 -12.732,-31.155" style="fill:#1c2137;fill-rule:nonzero;"/></g></svg>