<?xml version="1.0" encoding="UTF-8" standalone="no"?><!DOCTYPE svg PUBLIC "-//W3C//DTD SVG 1.1//EN" "http://www.w3.org/Graphics/SVG/1.1/DTD/svg11.dtd"><svg width="100%" height="100%" viewBox="0 0 2191 286" version="1.1" xmlns="http://www.w3.org/2000/svg" xmlns:xlink="http://www.w3.org/1999/xlink" xml:space="preserve" xmlns:serif="http://www.serif.com/" style="fill-rule:evenodd;clip-rule:evenodd;stroke-linejoin:round;stroke-miterlimit:2;"><g><path d="M343.135,20.007l40.851,0l-0,64.812l-1.689,33.673c14.567,-13.722 31.878,-26.389 55.734,-26.389c37.262,-0 53.623,25.228 53.623,69.245l-0,109.252l-40.851,0l0,-103.974c0,-28.606 -8.233,-39.478 -27.128,-39.478c-15.306,-0 -25.439,7.494 -39.689,21.745l-0,121.707l-40.851,0l0,-250.593Zm172.903,163.508c-0,-56.578 39.267,-91.518 80.329,-91.518c47.078,0 71.884,34.095 71.884,82.652c0,7.811 -0.844,15.622 -1.794,19.844l-110.624,0c3.378,30.929 23.222,48.557 51.3,48.557c14.884,-0 27.656,-4.645 40.429,-12.667l13.933,25.439c-16.572,11.189 -37.578,18.895 -59.745,18.895c-48.134,-0 -85.818,-33.778 -85.818,-91.202l0.106,0Zm116.851,-16.783c0,-26.812 -11.928,-43.173 -35.783,-43.173c-20.267,-0 -38.107,15.2 -41.696,43.173l77.479,-0Zm54.785,-124.135c-0,-13.723 10.766,-23.117 25.228,-23.117c14.461,-0 25.228,9.394 25.228,23.117c-0,13.722 -10.767,23.117 -25.228,23.117c-14.462,-0 -25.228,-9.606 -25.228,-23.117Zm4.644,53.623l40.851,-0l-0,174.169l-40.851,-0l0,-174.169Zm57.845,154.219l19.001,-25.967c15.411,12.033 30.4,19.422 48.134,19.422c19,0 27.972,-8.972 27.972,-20.9c0,-14.567 -18.894,-21.112 -37.472,-28.184c-22.801,-8.55 -48.979,-21.745 -48.979,-50.773c0,-29.028 24.384,-52.04 63.44,-52.04c24.278,0 43.701,9.817 57.845,20.901l-18.683,25.122c-12.245,-8.972 -24.49,-15.2 -38.212,-15.2c-17.522,0 -25.862,8.339 -25.862,19.317c0,13.722 17.629,19 36.418,25.967c23.539,8.761 49.928,20.162 49.928,52.673c0,29.978 -23.645,54.045 -67.662,54.045c-23.856,0 -48.978,-10.239 -65.973,-24.278l0.105,-0.105Zm151.264,-66.924c-0,-56.578 39.267,-91.518 80.329,-91.518c47.078,0 71.884,34.095 71.884,82.652c0,7.811 -0.844,15.622 -1.794,19.844l-110.624,0c3.378,30.929 23.222,48.557 51.301,48.557c14.883,-0 27.656,-4.645 40.428,-12.667l13.934,25.439c-16.573,11.189 -37.579,18.895 -59.746,18.895c-48.134,-0 -85.818,-33.778 -85.818,-91.202l0.106,0Zm116.852,-16.783c-0,-26.812 -11.928,-43.173 -35.784,-43.173c-20.267,-0 -38.212,15.2 -41.695,43.173l77.479,-0Zm-864.83,-162.875c20.583,9.606 29.45,33.99 19.845,54.468l-94.896,202.986c-9.606,20.478 -34.095,29.451 -54.679,19.845c-20.584,-9.606 -29.45,-33.99 -19.845,-54.468l94.896,-202.986c9.606,-20.478 34.095,-29.451 54.679,-19.845m65.656,129.519c-20.583,-9.606 -45.073,-0.739 -54.678,19.845l-34.306,73.362c-9.606,20.478 -0.739,44.967 19.844,54.467c20.584,9.606 45.073,0.739 54.679,-19.844l34.306,-73.363c9.606,-20.583 0.739,-44.967 -19.845,-54.467" style="fill:#1c2137;fill-rule:nonzero;"/><path d="M1164.37,95.586l33.356,0l3.061,23.645l1.161,0c14.673,-15.306 31.562,-27.973 53.306,-27.973c25.44,0 39.901,11.612 47.923,31.14c16.573,-17.628 33.779,-31.14 55.84,-31.14c36.628,0 53.623,25.123 53.623,69.035l0,108.935l-40.745,-0l0,-103.657c0,-28.606 -8.444,-39.268 -26.706,-39.268c-10.978,0 -22.906,7.073 -36.312,21.64l0,121.285l-40.745,-0l0,-103.657c0,-28.606 -8.444,-39.268 -26.706,-39.268c-10.766,0 -22.905,7.073 -36.311,21.64l-0,121.285l-40.745,-0l-0,-173.642Zm272.443,86.979c-0,-56.473 39.161,-91.201 80.012,-91.201c46.973,0 71.673,33.989 71.673,82.44c0,7.811 -0.844,15.517 -1.794,19.845l-110.202,-0c3.378,30.823 23.223,48.345 51.195,48.345c14.884,0 27.551,-4.644 40.323,-12.561l13.828,25.334c-16.572,11.189 -37.473,18.789 -59.534,18.789c-47.923,-0 -85.501,-33.673 -85.501,-90.885l-0,-0.106Zm116.535,-16.678c-0,-26.706 -11.928,-42.961 -35.678,-42.961c-20.267,-0 -38.001,15.094 -41.59,42.961l77.268,0Zm49.506,16.678c0,-56.578 35.467,-91.201 73.573,-91.201c19.634,0 32.09,7.389 45.496,19.106l-1.584,-27.973l0,-62.912l40.745,0l0,249.748l-33.356,0l-3.061,-18.789l-1.161,0c-12.878,12.878 -30.717,23.012 -49.401,23.012c-43.278,-0 -71.251,-33.673 -71.251,-90.885l0,-0.106Zm117.485,37.79l0,-80.857c-11.928,-10.556 -23.645,-14.461 -35.361,-14.461c-22.062,-0 -40.323,20.9 -40.323,57.106c-0,36.206 14.461,57.74 39.478,57.74c13.406,-0 24.701,-5.911 36.206,-19.528Zm73.679,-178.181c0,-13.722 10.767,-23.011 25.123,-23.011c14.356,-0 25.122,9.289 25.122,23.011c0,13.723 -10.766,23.012 -25.122,23.012c-14.356,-0 -25.123,-9.606 -25.123,-23.012Zm4.645,53.412l40.745,0l-0,173.642l-40.745,-0l-0,-173.642Zm67.028,86.979c0,-56.473 39.162,-91.201 80.013,-91.201c46.973,0 71.673,33.989 71.673,82.44c0,7.811 -0.844,15.517 -1.794,19.845l-110.202,-0c3.378,30.823 23.223,48.345 51.195,48.345c14.884,0 27.551,-4.644 40.323,-12.561l13.828,25.334c-16.572,11.189 -37.473,18.789 -59.534,18.789c-47.923,-0 -85.502,-33.673 -85.502,-90.885l0,-0.106Zm116.536,-16.678c-0,-26.706 -11.928,-42.961 -35.679,-42.961c-20.267,-0 -38,15.094 -41.589,42.961l77.268,0Zm59.956,-70.301l33.462,0l3.061,23.434l1.161,0c15.517,-15.095 33.25,-27.762 57.001,-27.762c37.156,0 53.412,25.123 53.412,69.035l-0,108.935l-40.745,-0l-0,-103.657c-0,-28.606 -8.234,-39.268 -27.023,-39.268c-15.306,0 -25.334,7.495 -39.584,21.64l0,121.285l-40.745,-0l0,-173.642Z" style="fill:#1c2137;fill-rule:nonzero;"/></g></svg>