<?xml version="1.0" encoding="UTF-8" standalone="no"?><!DOCTYPE svg PUBLIC "-//W3C//DTD SVG 1.1//EN" "http://www.w3.org/Graphics/SVG/1.1/DTD/svg11.dtd"><svg width="100%" height="100%" viewBox="0 0 1321 611" version="1.1" xmlns="http://www.w3.org/2000/svg" xmlns:xlink="http://www.w3.org/1999/xlink" xml:space="preserve" xmlns:serif="http://www.serif.com/" style="fill-rule:evenodd;clip-rule:evenodd;stroke-linejoin:round;stroke-miterlimit:2;"><g><g id="Symbol_105"><g id="bwi-it-logo-2016"><path id="Pfad_209" d="M169.681,215.831c0.003,0.147 0.004,0.294 0.004,0.442c-0,14.954 -12.306,27.259 -27.26,27.259c-1.191,0 -2.382,-0.078 -3.563,-0.234l-91.399,0l0,-54.871l91.399,-0c1.246,-0.175 2.502,-0.263 3.76,-0.263c14.822,0 27.019,12.197 27.019,27.019c-0,0.216 -0.003,0.432 -0.008,0.648m49.516,101.019c1.405,-22.831 -11.701,-44.228 -32.679,-53.348c18.312,-9.675 29.685,-28.887 29.36,-49.596c-0,-40.857 -27.404,-66.817 -73.536,-66.817l-141.332,-0l0,238.407l145.645,-0c42.3,-0 72.574,-24.518 72.574,-68.742m-46.149,-2.405c0.031,0.531 0.046,1.064 0.046,1.596c0,15.297 -12.587,27.885 -27.885,27.885c-0.974,-0 -1.947,-0.052 -2.915,-0.153l-94.686,-0l-0,-58.159l94.204,0c1.099,-0.131 2.204,-0.196 3.31,-0.196c15.332,-0 27.948,12.616 27.948,27.948c0,0.371 -0.007,0.741 -0.022,1.111" style="fill:#1c2137;"/><path id="Pfad_210" d="M402.812,360.994c17.151,17.232 40.584,26.78 64.893,26.442c1.51,0.082 3.021,0.124 4.532,0.124c45.513,-0 82.965,-37.452 82.965,-82.965c-0,-0.426 -0.004,-0.852 -0.01,-1.278l-0,-156.228l-45.684,-0l0,155.25c0.145,1.376 0.217,2.759 0.217,4.143c0,21.763 -17.907,39.67 -39.67,39.67c-0.789,0 -1.578,-0.023 -2.366,-0.07c-1.011,0.081 -2.025,0.121 -3.04,0.121c-20.882,0 -38.066,-17.184 -38.066,-38.066c-0,-1.456 0.083,-2.91 0.25,-4.355l-0.482,-156.693l-45.651,-0l0,155.25c0.075,1.017 0.112,2.037 0.112,3.057c0,22.871 -18.819,41.691 -41.69,41.691c-22.871,-0 -41.691,-18.82 -41.691,-41.691c0,-1.02 0.037,-2.04 0.112,-3.057l0,-155.25l-46.629,-0l-0,156.693c-0.004,0.33 -0.006,0.66 -0.006,0.991c-0,45.662 37.574,83.237 83.237,83.237c1.419,-0 2.838,-0.037 4.255,-0.109c24.142,-0.28 47.253,-9.939 64.412,-26.923" style="fill:#1c2137;"/><rect id="Rechteck_694" x="595.552" y="147.089" width="46.148" height="237.926" style="fill:#1c2137;"/><path id="Pfad_211" d="M354.74,46.149c-0,-25.316 20.832,-46.148 46.148,-46.148l509.027,0c0.097,-0.001 0.194,-0.001 0.29,-0.001c25.149,0 45.844,20.695 45.844,45.844c-0,0.102 -0.001,0.204 -0.001,0.305l-0,1.957c0,0.102 0.001,0.203 0.001,0.305c-0,25.149 -20.695,45.844 -45.844,45.844c-0.102,0 -0.204,-0 -0.306,-0.001l-508.53,0c-25.313,-0.009 -46.139,-20.835 -46.148,-46.148l-0,-1.925l-0.481,-0.032Z" style="fill:#1c2137;"/><path id="Pfad_212" d="M984.895,46.149c-0.001,-0.101 -0.002,-0.203 -0.002,-0.305c0,-25.149 20.695,-45.844 45.844,-45.844c0.102,-0 0.204,0 0.306,0.001l62.007,0c0.102,-0.001 0.204,-0.001 0.305,-0.001c25.15,-0 45.844,20.695 45.844,45.844c0,0.102 -0,0.204 -0.001,0.305l0,1.957c0.001,0.102 0.001,0.203 0.001,0.305c0,25.149 -20.694,45.844 -45.844,45.844c-0.101,0 -0.203,-0 -0.305,-0.001l-62.007,0c-0.102,0.001 -0.204,0.001 -0.306,0.001c-25.149,0 -45.844,-20.695 -45.844,-45.844c0,-0.102 0.001,-0.203 0.002,-0.305l-0,-1.957Z" style="fill:#1c2137;"/><path id="Pfad_213" d="M1164.66,46.149c-0.001,-0.096 -0.001,-0.193 -0.001,-0.289c-0,-25.158 20.702,-45.86 45.859,-45.86c0.097,0 0.193,0 0.29,0.001l62.007,0c0.102,-0.001 0.204,-0.001 0.306,-0.001c25.149,-0 45.843,20.695 45.843,45.844c0,0.102 -0,0.204 -0.001,0.305l0,1.957c0.001,0.102 0.001,0.203 0.001,0.305c0,25.149 -20.694,45.844 -45.843,45.844c-0.102,0 -0.204,-0 -0.306,-0.001l-61.526,0c-0.097,0.001 -0.193,0.001 -0.29,0.001c-25.157,-0 -45.859,-20.702 -45.859,-45.86c-0,-0.096 0,-0.193 0.001,-0.289l-0,-1.925l-0.481,-0.032Z" style="fill:#1c2137;"/><path id="Pfad_214" d="M16.34,608.541l-0,-123.565l-16.34,0l-0,123.469l16.34,0.096Zm86.043,-112.485l-0,-11.08l-65.856,0l0,11.048l24.518,0l-0,112.485l16.339,-0l0,-112.453l24.999,0Zm105.75,25.48l-0,-10.102l-16.821,-0l0,-15.378c-0.129,-0.828 -0.194,-1.665 -0.194,-2.503c0,-8.919 7.34,-16.259 16.26,-16.259c0.252,-0 0.503,0.006 0.755,0.017l-0,-10.102c-1.436,-0.221 -2.887,-0.332 -4.34,-0.332c-15.614,-0 -28.462,12.848 -28.462,28.461c-0,0.882 0.041,1.764 0.123,2.642l-0,13.454l-11.048,-0l-0,10.102l11.048,-0l-0,87.005l15.858,-0l0,-87.005l16.821,-0Zm74.979,-31.75c0.01,-0.165 0.015,-0.331 0.015,-0.497c-0,-4.495 -3.699,-8.193 -8.194,-8.193c-4.495,-0 -8.194,3.698 -8.194,8.193c0,4.495 3.699,8.194 8.194,8.194c0,0 0.001,0 0.001,0c4.34,0.09 8.005,-3.359 8.178,-7.697Zm-29.809,0c-0.001,-4.23 -3.482,-7.71 -7.713,-7.71c-0.155,-0 -0.31,0.004 -0.465,0.014c-4.34,-0.091 -8.005,3.359 -8.178,7.696c0.002,4.231 3.483,7.711 7.713,7.711c0.155,0 0.31,-0.004 0.465,-0.014c4.34,0.09 8.005,-3.359 8.178,-7.697Zm40.857,112.966l-0,-91.399l-15.859,0l0,83.638c-5.265,2.948 -11.282,4.287 -17.301,3.849c-0.482,0.039 -0.964,0.058 -1.448,0.058c-9.843,0 -17.943,-8.1 -17.943,-17.943c0,-0.77 0.05,-1.539 0.149,-2.303l-0,-67.699l-15.859,-0l0,67.346c0,19.242 10.102,31.717 34.123,31.717c11.811,0.66 23.589,-1.83 34.122,-7.216l0.016,-0.048Zm67.346,-92.778c-14.291,-1.611 -28.755,0.718 -41.819,6.735l0,91.816l15.859,-0l-0,-84.584c6.808,-3.592 14.786,-4.286 22.112,-1.924l3.848,-12.011l0,-0.032Zm150.456,35.566c-0,-38.484 -17.302,-62.536 -51.424,-62.536c-11.11,-0.289 -22.135,2.017 -32.198,6.734l-0,113.848c10.18,4.875 21.4,7.187 32.679,6.735c35.084,-0 50.959,-26.923 50.959,-64.893l-0.016,0.112Zm-17.302,-0.481c0,35.084 -9.621,53.348 -34.603,53.348c-5.23,0.143 -10.442,-0.672 -15.378,-2.405l0,-99.946c4.886,-1.924 10.138,-2.745 15.378,-2.405c23.555,-0 34.603,17.783 34.603,51.44l0,-0.032Zm111.523,12.01c0.481,-32.198 -13.454,-47.592 -37.009,-47.592c-22.593,0 -38.933,17.302 -38.933,49.997c0,34.603 17.783,50.478 43.295,50.478c10.206,0.473 20.35,-1.856 29.327,-6.735l-4.329,-10.583c-7.363,4.023 -15.665,6.015 -24.052,5.773c-17.302,-0 -27.885,-10.583 -29.328,-32.679l61.045,-8.659l-0.016,-0Zm-14.897,-6.735l-46.148,7.216c-0.481,-26.442 10.102,-37.49 24.052,-37.49c13.453,0 22.112,8.659 22.112,30.29l-0.016,-0.016Zm105.269,52.386l0,-91.399l-15.858,0l-0,83.638c-5.266,2.948 -11.283,4.287 -17.302,3.849c-0.481,0.039 -0.964,0.058 -1.447,0.058c-9.843,0 -17.943,-8.1 -17.943,-17.943c-0,-0.77 0.049,-1.539 0.148,-2.303l0,-67.667l-15.906,-0l-0,67.346c-0,19.242 10.102,31.717 34.122,31.717c11.807,0.6 23.569,-1.888 34.122,-7.216l0.064,-0.08Zm63.45,5.292l0,-10.102c-1.566,0.422 -3.191,0.585 -4.81,0.481c-8.659,-0 -12.01,-6.254 -12.01,-13.935l-0,-62.92l16.82,-0l0,-10.102l-16.884,-0l-0,-26.907l-15.859,4.811l0,22.096l-11.048,-0l0,10.102l11.048,-0l0,63.45c-0.068,0.709 -0.102,1.421 -0.102,2.133c0,12.315 10.134,22.449 22.449,22.449c0.569,-0 1.138,-0.022 1.705,-0.065c2.948,0.018 5.877,-0.47 8.659,-1.443l0.032,-0.048Zm71.147,-26.442c0,-11.048 -4.81,-21.15 -23.555,-28.366c-9.14,-3.367 -16.34,-8.177 -16.34,-17.301c-0.001,-0.091 -0.002,-0.181 -0.002,-0.271c-0,-8.313 6.84,-15.153 15.153,-15.153c0.397,-0 0.793,0.015 1.189,0.046c5.85,0.103 11.54,1.945 16.339,5.292l4.33,-9.621c-6.699,-4.428 -14.563,-6.772 -22.593,-6.735c-0.715,-0.057 -1.432,-0.086 -2.15,-0.086c-14.584,-0 -26.612,11.943 -26.713,26.528c-0,10.086 3.848,20.188 22.593,26.922c10.567,3.849 15.858,8.659 15.858,18.745c-0.067,9.26 -7.704,16.84 -16.964,16.84c-0.273,0 -0.546,-0.006 -0.818,-0.019c-6.719,0.244 -13.327,-1.791 -18.745,-5.773l-4.329,10.583c7.474,4.686 16.181,7.032 24.998,6.735c16.459,0.852 30.733,-11.914 31.717,-28.366l0.032,0Zm75.941,22.112l-3.848,-10.102c-4.319,3.163 -9.544,4.85 -14.897,4.811c-15.858,-0 -24.052,-15.859 -24.052,-39.414c0,-22.593 6.735,-38.484 24.518,-38.484c5.237,-0.231 10.379,1.483 14.431,4.811l3.848,-9.14c-6.158,-4.744 -13.891,-6.98 -21.631,-6.254c-21.631,0 -37.008,18.264 -37.008,49.997c-0,31.236 15.858,50.478 37.008,50.478c7.78,0.396 15.452,-1.993 21.631,-6.735l0,0.032Zm89.411,5.356l-0,-69.768c-0,-13.453 -7.697,-28.366 -32.198,-28.366c-7.723,0.152 -15.301,2.13 -22.112,5.773l-0,-49.468l-15.859,0l0,141.316l15.859,-0l-0,-82.66c5.674,-3.325 12.17,-4.992 18.744,-4.81c0.828,-0.121 1.663,-0.182 2.5,-0.182c9.509,0 17.334,7.825 17.334,17.334c-0,0.698 -0.043,1.396 -0.127,2.089l0,68.742l15.859,-0Zm42.3,-0.545l-0,-141.284l-15.939,0l0,141.316l15.939,-0.032Zm90.853,-5.292l0,-62.007c0.053,-0.715 0.079,-1.433 0.079,-2.15c0,-16.133 -13.275,-29.408 -29.408,-29.408c-1.454,-0 -2.906,0.108 -4.344,0.322c-10.36,0.068 -20.564,2.538 -29.809,7.216l3.849,9.14c7.23,-3.958 15.313,-6.104 23.555,-6.254c12.491,0 21.631,4.33 21.631,19.242l-0,5.773c-29.809,2.886 -54.31,10.583 -54.31,36.527c-0,17.783 11.529,28.366 37.008,28.366c10.994,0.773 21.986,-1.561 31.717,-6.735l0.032,-0.032Zm-14.896,-5.291c-4.989,2.229 -10.394,3.377 -15.858,3.367c-14.432,0 -23.075,-5.773 -23.075,-19.707c0,-19.707 14.432,-24.998 38.933,-27.885l0,44.225Zm111.042,10.567l-0,-70.185c-0,-13.934 -7.697,-28.863 -35.085,-28.863c-12.197,-0.286 -24.317,2.01 -35.565,6.735l-0,91.816l15.858,-0l0,-85.001c5.765,-2.457 12.003,-3.607 18.264,-3.368c16.34,0 20.188,10.102 20.188,18.745l0,69.704l16.34,-0l-0,0.417Zm94.686,-5.228l-0,-136.04l-15.859,0l0,45.668c-5.012,-1.348 -10.187,-1.996 -15.377,-1.924c-24.999,-0 -42.3,18.744 -42.3,50.958c-0,29.328 14.896,48.554 42.781,48.554c10.726,0.551 21.392,-1.951 30.755,-7.216Zm-15.859,-6.317c-4.289,2.228 -9.113,3.227 -13.934,2.886c-19.707,-0 -27.885,-16.821 -27.885,-39.414c0,-21.15 7.216,-40.376 29.809,-40.376c4.088,-0.104 8.159,0.549 12.01,1.924l0,74.98Z" style="fill:#1c2137;fill-rule:nonzero;"/></g></g></g></svg>