<?xml version="1.0" encoding="UTF-8" standalone="no"?><!DOCTYPE svg PUBLIC "-//W3C//DTD SVG 1.1//EN" "http://www.w3.org/Graphics/SVG/1.1/DTD/svg11.dtd"><svg width="100%" height="100%" viewBox="0 0 1834 376" version="1.1" xmlns="http://www.w3.org/2000/svg" xmlns:xlink="http://www.w3.org/1999/xlink" xml:space="preserve" xmlns:serif="http://www.serif.com/" style="fill-rule:evenodd;clip-rule:evenodd;stroke-linejoin:round;stroke-miterlimit:2;"><g><path d="M255.41,29.488c-23.493,-39.635 -80.716,-39.236 -103.661,0.721l-10.958,19.084c-3.276,5.704 -1.346,12.953 3.583,17.29c6.679,5.881 12.789,13.319 18.287,21.901c16.244,25.351 29.357,44.666 41.269,58.347c12.066,13.86 20.876,19.512 27.822,21.181c6.008,1.445 14.144,0.717 27.302,-7.69c11.349,-7.251 24.926,-19.29 41.792,-37.385c3.621,-3.884 4.195,-9.716 1.484,-14.289l-46.92,-79.16Z" style="fill:#1c2137;fill-rule:nonzero;"/><path d="M373.355,228.475c-3.531,-5.957 -11.292,-7.668 -17.306,-4.273c-22.362,12.619 -42.687,16.694 -58.296,17.28c-4.68,0.176 -9.015,2.709 -11.18,6.883c-12.959,24.991 -28.911,51.024 -52.848,70.479c-16.916,13.748 -39.898,27.122 -67.418,29.497c-28.272,2.441 -58.464,-6.97 -88.501,-33.595c-18.95,-16.799 -33.313,-37.622 -42.796,-60.412c-2.005,-4.82 -8.814,-5.477 -11.412,-0.953l-15.461,26.926c-22.945,39.958 5.324,89.983 51.209,90.622l294.28,4.096c46.996,0.653 76.513,-50.75 52.452,-91.344l-32.723,-55.206Z" style="fill:#1c2137;fill-rule:nonzero;"/><path d="M275.618,221.089l48.852,-94.665c18.196,-24.182 33.76,-22.722 45.802,-12.548c26.567,22.446 16.153,66.118 -12.196,86.261c-39.482,28.053 -72.788,23.4 -82.458,20.952Z" style="fill:#1c2137;fill-rule:nonzero;"/><path d="M145.784,101.018c-28.034,-43.574 -57.576,-29.678 -80.904,5.222c-40.292,60.277 -28.825,146.271 25.509,194.239c53.095,46.872 99.979,28.103 130.337,3.531c27.929,-22.608 44.01,-55.998 59.88,-88.259l43.949,-89.342c-87.763,98.543 -114.117,75.103 -178.771,-25.391Z" style="fill:#1c2137;fill-rule:nonzero;"/><path d="M145.784,101.018c-28.034,-43.574 -57.576,-29.678 -80.904,5.222c-40.292,60.277 -28.825,146.271 25.509,194.239c53.095,46.872 99.979,28.103 130.337,3.531c27.929,-22.608 44.01,-55.998 59.88,-88.259l43.949,-89.342c-87.763,98.543 -114.117,75.103 -178.771,-25.391Z" style="fill:#1c2137;fill-rule:nonzero;"/><path d="M602.198,138.995c11.352,0 21.442,2.399 30.276,7.195c9.007,4.797 16.037,11.903 21.079,21.318c5.227,9.416 7.84,20.786 7.84,34.11l0,86.605l-30.544,-0l-0,-82.075c-0,-13.147 -3.334,-23.184 -10.001,-30.112c-6.667,-7.106 -15.763,-10.659 -27.297,-10.659c-11.533,-0 -20.722,3.553 -27.569,10.659c-6.667,6.928 -10.001,16.965 -10.001,30.112l-0,82.075l-30.813,-0l0,-197.194l30.813,-0l-0,67.419c5.225,-6.218 11.802,-11.015 19.731,-14.39c8.108,-3.375 16.937,-5.063 26.486,-5.063Z" style="fill:#1c2137;fill-rule:nonzero;"/><path d="M830.431,211.211c-0,5.507 -0.357,10.481 -1.078,14.923l-113.789,-0c0.899,11.725 5.31,21.14 13.239,28.246c7.93,7.106 17.663,10.659 29.193,10.659c16.579,0 28.288,-6.839 35.14,-20.519l33.241,0c-4.501,13.502 -12.704,24.605 -24.597,33.31c-11.71,8.528 -26.306,12.791 -43.784,12.791c-14.233,0 -27.026,-3.108 -38.378,-9.327c-11.173,-6.395 -20.002,-15.278 -26.49,-26.647c-6.304,-11.547 -9.459,-24.872 -9.459,-39.972c-0,-15.1 3.06,-28.335 9.191,-39.705c6.304,-11.548 15.043,-20.43 26.216,-26.648c11.352,-6.218 24.324,-9.327 38.92,-9.327c14.055,0 26.58,3.02 37.569,9.06c10.995,6.041 19.549,14.568 25.68,25.582c6.126,10.837 9.186,23.362 9.186,37.574Zm-32.164,-9.593c-0.178,-11.192 -4.232,-20.164 -12.161,-26.915c-7.93,-6.751 -17.752,-10.126 -29.461,-10.126c-10.632,0 -19.734,3.375 -27.3,10.126c-7.566,6.574 -12.072,15.545 -13.513,26.915l82.435,-0Z" style="fill:#1c2137;fill-rule:nonzero;"/><path d="M908.056,290.621c-11.715,0 -22.252,-2.043 -31.622,-6.129c-9.191,-4.263 -16.489,-9.948 -21.894,-17.054c-5.405,-7.284 -8.293,-15.367 -8.65,-24.25l31.896,0c0.535,6.218 3.512,11.459 8.917,15.722c5.584,4.086 12.525,6.129 20.811,6.129c8.65,0 15.317,-1.599 20.002,-4.796c4.863,-3.376 7.298,-7.639 7.298,-12.791c0,-5.507 -2.702,-9.593 -8.108,-12.258c-5.226,-2.665 -13.608,-5.596 -25.139,-8.794c-11.173,-3.02 -20.269,-5.951 -27.299,-8.794c-7.025,-2.842 -13.15,-7.195 -18.377,-13.057c-5.048,-5.863 -7.566,-13.591 -7.566,-23.184c-0,-7.816 2.339,-14.922 7.024,-21.318c4.685,-6.573 11.352,-11.725 20.002,-15.455c8.828,-3.732 18.918,-5.597 30.27,-5.597c16.942,0 30.544,4.264 40.813,12.791c10.453,8.35 16.037,19.808 16.757,34.376l-30.812,-0c-0.541,-6.574 -3.244,-11.814 -8.107,-15.723c-4.864,-3.908 -11.442,-5.862 -19.728,-5.862c-8.114,0 -14.329,1.51 -18.65,4.53c-4.328,3.02 -6.489,7.017 -6.489,11.992c-0,3.908 1.44,7.195 4.322,9.859c2.887,2.665 6.399,4.797 10.542,6.396c4.143,1.421 10.275,3.287 18.383,5.596c10.81,2.842 19.638,5.774 26.484,8.794c7.03,2.843 13.066,7.106 18.109,12.791c5.048,5.684 7.661,13.235 7.839,22.651c0,8.349 -2.339,15.81 -7.024,22.384c-4.685,6.573 -11.352,11.725 -20.002,15.456c-8.47,3.73 -18.471,5.595 -30.002,5.595Z" style="fill:#1c2137;fill-rule:nonzero;"/><path d="M1045.68,290.621c-11.715,0 -22.251,-2.043 -31.627,-6.129c-9.186,-4.263 -16.484,-9.948 -21.889,-17.054c-5.405,-7.284 -8.292,-15.367 -8.649,-24.25l31.895,0c0.536,6.218 3.512,11.459 8.917,15.722c5.584,4.086 12.525,6.129 20.812,6.129c8.649,0 15.316,-1.599 20.001,-4.796c4.864,-3.376 7.298,-7.639 7.298,-12.791c0,-5.507 -2.702,-9.593 -8.107,-12.258c-5.227,-2.665 -13.609,-5.596 -25.139,-8.794c-11.174,-3.02 -20.27,-5.951 -27.3,-8.794c-7.025,-2.842 -13.15,-7.195 -18.377,-13.057c-5.048,-5.863 -7.572,-13.591 -7.572,-23.184c0,-7.816 2.346,-14.922 7.031,-21.318c4.685,-6.573 11.352,-11.725 20.001,-15.455c8.828,-3.732 18.918,-5.597 30.271,-5.597c16.936,0 30.544,4.264 40.812,12.791c10.454,8.35 16.037,19.808 16.758,34.376l-30.812,-0c-0.542,-6.574 -3.245,-11.814 -8.108,-15.723c-4.864,-3.908 -11.441,-5.862 -19.728,-5.862c-8.114,0 -14.328,1.51 -18.65,4.53c-4.328,3.02 -6.489,7.017 -6.489,11.992c0,3.908 1.441,7.195 4.322,9.859c2.887,2.665 6.399,4.797 10.542,6.396c4.144,1.421 10.275,3.287 18.383,5.596c10.81,2.842 19.638,5.774 26.484,8.794c7.031,2.843 13.067,7.106 18.109,12.791c5.048,5.684 7.661,13.235 7.84,22.651c-0,8.349 -2.34,15.81 -7.025,22.384c-4.685,6.573 -11.352,11.725 -20.001,15.456c-8.471,3.73 -18.472,5.595 -30.003,5.595Z" style="fill:#1c2137;fill-rule:nonzero;"/><path d="M1144.92,121.941c-5.584,-0 -10.269,-1.866 -14.055,-5.596c-3.78,-3.731 -5.673,-8.35 -5.673,-13.857c-0,-5.507 1.893,-10.126 5.673,-13.857c3.786,-3.731 8.471,-5.596 14.055,-5.596c5.405,-0 10,1.865 13.786,5.596c3.786,3.731 5.673,8.35 5.673,13.857c0,5.507 -1.887,10.126 -5.673,13.857c-3.786,3.73 -8.381,5.596 -13.786,5.596Zm15.138,19.453l-0,146.829l-30.812,-0l-0,-146.829l30.812,-0Z" style="fill:#1c2137;fill-rule:nonzero;"/><path d="M1183.48,214.142c0,-14.745 3.066,-27.802 9.191,-39.172c6.305,-11.37 14.775,-20.164 25.407,-26.382c10.811,-6.395 22.704,-9.593 35.676,-9.593c11.715,0 21.894,2.31 30.544,6.929c8.828,4.441 15.858,10.037 21.085,16.788l-0,-21.318l31.08,-0l-0,146.829l-31.08,-0l-0,-21.851c-5.227,6.928 -12.346,12.702 -21.353,17.321c-9.013,4.619 -19.281,6.928 -30.812,6.928c-12.799,0 -24.508,-3.198 -35.14,-9.593c-10.632,-6.573 -19.102,-15.633 -25.407,-27.181c-6.125,-11.725 -9.191,-24.96 -9.191,-39.705Zm121.903,0.533c-0,-10.126 -2.167,-18.92 -6.489,-26.381c-4.143,-7.461 -9.643,-13.146 -16.489,-17.055c-6.846,-3.908 -14.233,-5.862 -22.163,-5.862c-7.929,-0 -15.316,1.954 -22.162,5.862c-6.846,3.731 -12.436,9.327 -16.757,16.788c-4.144,7.284 -6.215,15.989 -6.215,26.115c-0,10.126 2.071,19.009 6.215,26.648c4.321,7.639 9.911,13.502 16.757,17.588c7.024,3.908 14.412,5.862 22.162,5.862c7.93,-0 15.317,-1.954 22.163,-5.862c6.846,-3.909 12.346,-9.593 16.489,-17.055c4.322,-7.639 6.489,-16.522 6.489,-26.648Z" style="fill:#1c2137;fill-rule:nonzero;"/><path d="M1445.32,138.995c11.709,0 22.163,2.399 31.354,7.195c9.37,4.797 16.668,11.903 21.894,21.318c5.221,9.416 7.834,20.786 7.834,34.11l0,86.605l-30.538,-0l0,-82.075c0,-13.147 -3.333,-23.184 -10.001,-30.112c-6.667,-7.106 -15.769,-10.659 -27.3,-10.659c-11.53,-0 -20.721,3.553 -27.567,10.659c-6.667,6.928 -10.001,16.965 -10.001,30.112l-0,82.075l-30.812,-0l-0,-146.829l30.812,-0l-0,16.788c5.042,-6.04 11.441,-10.749 19.186,-14.124c7.929,-3.375 16.311,-5.063 25.139,-5.063Z" style="fill:#1c2137;fill-rule:nonzero;"/><path d="M1562.17,286.008c-6.846,0 -12.525,-2.154 -17.031,-6.462c-4.322,-4.495 -6.489,-10.021 -6.489,-16.577c0,-6.555 2.167,-11.987 6.489,-16.295c4.506,-4.496 10.185,-6.744 17.031,-6.744c6.673,0 12.167,2.248 16.495,6.744c4.322,4.308 6.489,9.74 6.489,16.295c-0,6.556 -2.167,12.082 -6.489,16.577c-4.328,4.308 -9.822,6.462 -16.495,6.462Z" style="fill:#1c2137;fill-rule:nonzero;"/><path d="M1724.58,246.674l-75.155,-0l-12.436,37.368l-39.741,-0l67.857,-196.394l44.069,-0l67.857,196.394l-40.016,-0l-12.435,-37.368Zm-10.269,-31.468l-27.306,-82.042l-27.305,82.042l54.611,-0Z" style="fill:#1c2137;fill-rule:nonzero;"/><rect x="1795.63" y="87.929" width="37.848" height="196.113" style="fill:#1c2137;fill-rule:nonzero;"/></g></svg>