<?xml version="1.0" encoding="UTF-8" standalone="no"?><!DOCTYPE svg PUBLIC "-//W3C//DTD SVG 1.1//EN" "http://www.w3.org/Graphics/SVG/1.1/DTD/svg11.dtd"><svg width="100%" height="100%" viewBox="0 0 1295 334" version="1.1" xmlns="http://www.w3.org/2000/svg" xmlns:xlink="http://www.w3.org/1999/xlink" xml:space="preserve" xmlns:serif="http://www.serif.com/" style="fill-rule:evenodd;clip-rule:evenodd;stroke-linejoin:round;stroke-miterlimit:2;"><g><path d="M845.094,91.65c-2.095,-0 -3.053,1.011 -3.053,2.759l-0,32.047c-0,2.054 1.106,2.938 2.99,2.938l14.407,-0.042l0,104.586l-14.227,0c-1.56,0 -2.813,1.264 -2.813,2.822l0,32.142c0,1.527 1.253,2.791 2.813,2.791l67.06,-0c1.558,-0 2.818,-1.264 2.818,-2.791l-0,-32.142c-0,-1.558 -1.26,-2.822 -2.818,-2.822l-13.92,0l-0.053,-139.487c0,-1.537 -1.303,-2.801 -2.843,-2.801l-50.361,-0Zm-829.908,-40.981c-1.548,0 -2.801,1.116 -2.801,2.801l-0,32.11c-0,1.559 1.253,2.812 2.801,2.812l42.694,0l-0,140.298c-0,20.209 -4.413,30.761 -15.323,36.806c-8.415,4.698 -20.273,6.709 -36.828,6.709l-2.917,-0c-1.738,-0 -2.812,1.074 -2.812,2.812l-0,30.846c-0,1.769 1.158,2.822 2.812,2.822l7.245,0.01c32.911,0 55.753,-7.739 69.222,-20.62c11.911,-11.363 17.503,-25.59 17.503,-45.842l0,-188.931c0,-1.696 -1.137,-2.633 -2.938,-2.633l-78.658,0Zm620.147,-0.054c-1.549,0 -2.96,1.264 -2.96,2.812l-0,144.573c-0,13.986 -3.37,24.539 -9.457,30.847c-5.771,5.971 -14.018,9.404 -24.159,9.404l-2.664,0c-10.047,0 -18.124,-2.97 -23.822,-8.625c-6.129,-6.098 -9.478,-17.018 -9.478,-32.142l-0,-144.057c-0,-1.548 -1.264,-2.812 -2.801,-2.812l-33.343,0c-1.548,0 -2.78,1.264 -2.78,2.812l0,145.627c0,29.445 7.225,43.536 18.251,54.468c9.594,9.509 22.452,15.07 35.764,17.387l-0,59.375c-0,1.633 1.137,2.812 2.823,2.812l32.825,0c1.748,0 2.802,-1.148 2.802,-2.812l-0,-59.449c14.154,-2.728 27.129,-9.352 36.628,-19.104c11.395,-11.753 18.335,-28.961 18.335,-52.783l-0,-145.521c-0,-1.548 -1.085,-2.812 -2.654,-2.812l-33.31,0Zm310.309,56.932l0,4.907c0,37.798 16.598,47.307 57.817,63.23c38.131,14.712 45.209,19.462 45.209,39.039c0,15.261 -12.223,26.981 -32.933,26.981c-24.858,0 -35.331,-12.931 -35.331,-36.775c0,-2.137 -1.391,-3.254 -4.287,-3.254l-29.731,0c-2.59,0 -3.631,1.391 -3.631,3.434l-0,9.941c-0,34.722 22.18,60.534 71.352,60.534c46.364,-0 74.407,-26.35 74.407,-61.281l-0,-6.951c-0,-32.026 -15.601,-43.989 -59.97,-61.65c-36.057,-14.376 -43.485,-17.998 -43.485,-38.966c-0,-14.396 9.922,-26.054 28.83,-26.054c19.765,-0 28.926,11.331 28.926,30.888c-0,2.938 2.021,4.17 5.643,4.17l28.865,-0c1.829,-0 2.931,-0.906 2.931,-3.075l-0,-5.992c-0,-37.987 -27.474,-59.744 -66.829,-59.744c-41.569,-0 -67.783,26.117 -67.783,60.618Zm-771.687,25.041c-0,-17.692 3.117,-29.203 9.731,-36.912c5.897,-6.856 14.154,-11.153 25.622,-11.153l0.78,0c9.847,0 19.114,3.96 25.665,11.248c6.55,7.277 9.857,18.071 9.857,36.975l0,9.131l-71.655,-0l-0,-9.289Zm-18.519,-63.344c-13.502,14.564 -20.42,34.1 -20.42,68.811l-0,50.413c-0,33.795 6.951,53.341 20.757,67.526c12.932,13.301 30.761,19.515 51.54,19.515c33.268,0 57.069,-16.787 71.634,-46.022c0.842,-1.875 0.442,-2.896 -1.401,-3.822l-25.865,-12.68c-1.664,-0.822 -2.801,-0.284 -3.77,1.432c-9.963,17.672 -23.042,25.244 -38.47,25.244c-9.721,-0 -18.263,-3.518 -24.402,-9.636c-6.919,-6.919 -11.068,-18.598 -11.068,-37.524l-0,-13.037l107.588,-0c1.926,-0 2.811,-0.937 2.811,-2.759l0.01,-40.819c0,-35.048 -7.403,-54.026 -18.903,-66.284c-13.859,-14.723 -33.785,-22.737 -55.931,-22.737c-20.073,-0 -40.83,8.014 -54.11,22.379Zm702.041,-52.804c-1.728,-0 -2.834,1.263 -2.834,2.811l0,38.577c0,1.779 1.274,2.801 2.834,2.801l36.639,-0c1.698,-0 2.8,-1.011 2.8,-2.801l-0,-38.577c-0,-1.664 -0.919,-2.811 -2.8,-2.811l-36.639,-0Zm274.111,-14.886c-1.698,-0 -2.94,1.053 -2.94,2.801l-0,229.666l-14.472,0c-1.557,0 -2.809,1.253 -2.809,2.801l0,32.121c0,1.538 1.252,2.833 2.809,2.833l67.275,-0c1.566,-0 2.818,-1.295 2.818,-2.833l-0,-32.121c-0,-1.548 -1.252,-2.801 -2.818,-2.801l-13.868,0l-0.017,-100.541c-0,-18.493 3.167,-29.488 10.954,-37.777c6.134,-6.518 15.443,-10.889 27.447,-10.889c10.202,0 18.943,3.402 24.578,9.783c6.606,7.436 9.668,19.083 9.668,38.155l0,101.269l-14.235,0c-1.558,0 -2.8,1.253 -2.8,2.801l-0,32.121c-0,1.538 1.242,2.833 2.8,2.833l66.12,-0c1.575,-0 2.835,-1.295 2.835,-2.833l-0,-32.121c-0,-1.548 -1.26,-2.801 -2.835,-2.801l-12.984,0l-0,-111.789c-0,-27.392 -6.064,-43.715 -17.709,-56.543c-10.71,-11.289 -27.343,-18.714 -45.699,-18.714c-19.039,0 -37.658,7.425 -48.14,18.83l-0,-61.45c-0,-1.537 -1.251,-2.801 -2.809,-2.801l-33.169,-0Zm-805.301,-0.097c-1.706,0 -2.822,1.18 -2.822,2.802l0,213.532c0,22.6 4.992,33.879 13.733,42.367c10.352,10.079 27.455,15.123 46.695,15.123l10.89,-0c1.685,-0 2.812,-1.084 2.812,-2.78l0,-31.51c0,-2.001 -1.137,-2.791 -2.812,-2.791l-5.803,0c-9.194,0 -15.607,-2.064 -19.799,-6.329c-5.086,-5.16 -6.803,-12.574 -6.803,-26.76l0,-200.852c0,-1.654 -1.064,-2.802 -2.812,-2.802l-33.279,0Zm101.842,0c-1.685,0 -2.812,1.18 -2.812,2.802l0,213.532c0,22.6 4.993,33.879 13.733,42.367c10.363,10.079 27.466,15.123 46.696,15.123l10.9,-0c1.675,-0 2.801,-1.084 2.801,-2.78l-0,-31.51c-0,-2.001 -1.126,-2.791 -2.801,-2.791l-5.803,0c-9.204,0 -15.607,-2.064 -19.82,-6.329c-5.065,-5.16 -6.792,-12.574 -6.792,-26.76l-0,-200.852c-0,-1.654 -1.064,-2.802 -2.802,-2.802l-33.3,0Zm373.725,-1.457c-26.57,-0 -47.496,7.066 -60.776,19.978c-15.671,15.249 -20.251,33.531 -20.251,62.882l-0,151.071l-11.88,0c-1.558,0 -2.801,1.264 -2.801,2.823l0,32.141c0,1.527 1.243,2.791 2.801,2.791l65.926,-0c1.57,-0 2.812,-1.264 2.812,-2.791l0,-32.141c0,-1.559 -1.242,-2.823 -2.812,-2.823l-15.133,0l-0,-104.544l51.024,0c1.875,0 2.98,-0.884 2.98,-2.938l-0,-32.047c-0,-1.748 -0.937,-2.759 -3.054,-2.759l-50.95,-0l-0,-7.224c-0,-16.06 2.179,-27.308 10.057,-35.417c8.12,-8.32 20.167,-11.279 37.891,-11.279l8.552,0c1.99,0 3.665,-1.074 3.665,-2.78l0,-32.11c0,-1.948 -1.032,-2.833 -3.033,-2.833l-15.018,-0Z" style="fill:#1c2137;"/></g></svg>