<?xml version="1.0" encoding="UTF-8" standalone="no"?><!DOCTYPE svg PUBLIC "-//W3C//DTD SVG 1.1//EN" "http://www.w3.org/Graphics/SVG/1.1/DTD/svg11.dtd"><svg width="100%" height="100%" viewBox="0 0 2090 383" version="1.1" xmlns="http://www.w3.org/2000/svg" xmlns:xlink="http://www.w3.org/1999/xlink" xml:space="preserve" xmlns:serif="http://www.serif.com/" style="fill-rule:evenodd;clip-rule:evenodd;stroke-linejoin:round;stroke-miterlimit:2;"><g><path id="path3360" d="M-0,0l-0,382.896l2089.97,0l0,-382.896l-2089.97,0Zm1359.28,245.692c-15.954,22.335 -43.075,35.099 -74.983,35.099c-55.839,-0 -94.129,-36.695 -94.129,-92.534c-0,-55.839 38.29,-92.533 94.129,-92.533c28.717,0 52.648,9.572 68.602,27.122l1.595,1.595l-22.335,22.336l-1.596,-1.596c-12.763,-11.167 -28.717,-17.549 -46.266,-17.549c-33.504,0 -57.435,23.931 -57.435,60.625c0,36.695 23.931,60.626 57.435,60.626c15.954,-0 30.312,-4.787 39.885,-14.359l-0,-30.313l-41.481,0l0,-30.312l78.175,-0l-0,71.793l-1.596,-0Zm183.472,-113.274l-102.106,0l-0,41.481l94.129,-0l-0,31.908l-94.129,-0l-0,73.388l-36.694,0l-0,-178.685l138.8,0l-0,31.908Zm151.563,0l-49.458,0l0,146.777l-36.694,0l0,-146.777l-47.862,0l-0,-31.908l134.014,0l-0,31.908Zm293.553,146.777l-177.089,0l-0,-178.685l177.089,0l0,178.685Z" style="fill:#1c2137;fill-rule:nonzero;"/></g></svg>