<?xml version="1.0" encoding="UTF-8" standalone="no"?><!DOCTYPE svg PUBLIC "-//W3C//DTD SVG 1.1//EN" "http://www.w3.org/Graphics/SVG/1.1/DTD/svg11.dtd"><svg width="100%" height="100%" viewBox="0 0 2833 342" version="1.1" xmlns="http://www.w3.org/2000/svg" xmlns:xlink="http://www.w3.org/1999/xlink" xml:space="preserve" xmlns:serif="http://www.serif.com/" style="fill-rule:evenodd;clip-rule:evenodd;stroke-linejoin:round;stroke-miterlimit:2;"><g><g><g><path d="M539.876,91.552l-83.914,0l0,158.134l30.798,-0l-0,-69.715l49.796,0l-0,-26.528l-49.796,-0l-0,-35.362l53.116,-0l-0,-26.529Z" style="fill:#1c2137;fill-rule:nonzero;"/><path d="M643.277,87.996c-49.81,0 -84.401,34.591 -84.401,82.742c-0,48.149 34.591,82.505 84.401,82.505c49.811,0 84.402,-34.356 84.402,-82.505c0,-48.151 -34.591,-82.742 -84.402,-82.742Zm-0,137.296c-30.835,-0 -52.656,-22.534 -52.656,-54.554c-0,-32.022 21.821,-54.791 52.656,-54.791c30.834,0 52.657,22.769 52.657,54.791c-0,32.02 -21.823,54.554 -52.657,54.554Z" style="fill:#1c2137;fill-rule:nonzero;"/><path d="M750.242,91.552l0,158.134l30.796,-0l0,-63.55l3.798,-0l42.229,63.55l38.391,-0l-49.296,-66.628c7.588,-1.421 13.273,-4.026 17.301,-6.868c12.319,-8.287 18.479,-21.805 18.479,-37.228c-0,-11.864 -3.554,-25.383 -15.636,-35.568c-7.345,-6.158 -18.482,-11.842 -40.315,-11.842l-45.747,0Zm30.796,25.105l9.256,0c5.695,0 29.9,0.238 29.9,23.728c0,23.253 -24.442,23.966 -30.374,23.966l-8.782,-0l0,-47.694Z" style="fill:#1c2137;fill-rule:nonzero;"/><path d="M977.401,149.4l34.625,100.286l23.243,-0l58.545,-158.134l-32.693,0l-37.948,107.636l-36.524,-109.059l-17.075,0l-38.659,109.059l-35.339,-107.636l-32.693,0l54.987,158.134l23.243,-0l36.288,-100.286Z" style="fill:#1c2137;fill-rule:nonzero;"/><path d="M1204.08,249.686l33.197,-0l-66.155,-158.134l-24.163,0l-68.053,158.134l33.435,-0l13.99,-33.198l63.759,0l13.99,33.198Zm-68.026,-58.304l22.513,-56.91l22.512,56.91l-45.025,-0Z" style="fill:#1c2137;fill-rule:nonzero;"/><path d="M1249.88,91.552l0,158.134l30.798,-0l-0,-63.55l3.796,-0l42.229,63.55l38.391,-0l-49.296,-66.628c7.588,-1.421 13.273,-4.026 17.301,-6.868c12.319,-8.287 18.479,-21.805 18.479,-37.228c-0,-11.864 -3.554,-25.383 -15.636,-35.568c-7.343,-6.158 -18.482,-11.842 -40.314,-11.842l-45.748,0Zm30.798,25.105l9.254,0c5.696,0 29.9,0.238 29.9,23.728c0,23.253 -24.442,23.966 -30.374,23.966l-8.78,-0l-0,-47.694Z" style="fill:#1c2137;fill-rule:nonzero;"/><path d="M1386,91.552l-0,158.134l40.76,-0c22.063,-0 39.38,-2.132 57.884,-15.159c20.848,-14.691 31.745,-37.461 31.745,-63.789c-0,-26.328 -11.134,-49.336 -30.324,-63.789c-17.551,-13.029 -36.768,-15.397 -58.83,-15.397l-41.235,0Zm30.797,26.529l9.489,-0c10.438,-0 26.094,0.949 38.906,10.438c12.573,9.487 19.452,25.616 19.452,42.219c-0,16.84 -7.117,32.969 -19.69,41.983c-13.759,9.962 -30.84,10.436 -38.668,10.436l-9.489,0l0,-105.076Z" style="fill:#1c2137;fill-rule:nonzero;"/><path d="M1640.87,91.315l0,158.133l17.517,0l0,-68.765l15.423,-0c36.058,-0 50.024,-22.027 50.024,-44.329c0,-9.964 -2.84,-23.962 -14.44,-33.913c-10.67,-9.232 -23.957,-11.126 -39.854,-11.126l-28.67,-0Zm17.517,16.569l13.051,0c11.389,0 34.879,2.372 34.879,27.522c-0,18.268 -12.576,28.707 -33.456,28.707l-14.474,-0l0,-56.229Z" style="fill:#1c2137;fill-rule:nonzero;"/><path d="M1766.53,91.315l-17.517,-0l-0,101.727c-0,13.279 1.42,26.084 9.942,37.941c9.474,13.027 26.079,21.311 46.242,21.311c20.164,0 36.769,-8.284 46.241,-21.311c8.522,-11.857 9.944,-24.662 9.944,-37.941l-0,-101.727l-17.519,-0l0,96.984c0,13.28 0,27.744 -12.573,38.415c-6.403,5.454 -17.315,9.01 -26.093,9.01c-8.777,0 -19.689,-3.556 -26.094,-9.01c-12.573,-10.671 -12.573,-25.135 -12.573,-38.415l0,-96.984Z" style="fill:#1c2137;fill-rule:nonzero;"/><path d="M1902.19,91.315l0,158.133l39.346,0c10.913,0 25.384,-0.473 37.955,-10.415c8.522,-6.629 16.098,-18.965 16.098,-34.149c-0,-15.184 -8.048,-34.387 -30.092,-39.83c13.971,-9.481 15.627,-23.242 15.627,-31.071c0,-19.218 -9.231,-28.939 -14.202,-32.726c-11.62,-9.232 -27.518,-9.942 -36.298,-9.942l-28.434,-0Zm17.519,16.569l13.762,0c4.984,0 30.61,0.474 30.61,26.573c-0,24.438 -21.829,26.336 -31.085,26.336l-13.287,-0l0,-52.909Zm0,68.529l18.033,0c12.577,0 20.882,1.425 26.813,4.746c6.162,3.322 13.516,10.676 13.516,23.25c0,9.49 -4.27,17.32 -10.439,21.828c-7.591,5.931 -17.556,6.643 -27.757,6.643l-20.166,-0l0,-56.467Z" style="fill:#1c2137;fill-rule:nonzero;"/><path d="M2027.86,91.315l-0,158.133l61.148,0l0,-16.568l-43.631,-0l-0,-141.565l-17.517,-0Z" style="fill:#1c2137;fill-rule:nonzero;"/><rect x="2112.76" y="91.315" width="17.517" height="158.133" style="fill:#1c2137;"/><path d="M2255.73,113.34c-3.551,-6.879 -8.995,-13.271 -15.395,-17.532c-7.83,-5.208 -15.658,-7.102 -25.386,-7.102c-25.623,0 -44.327,16.334 -44.327,40.762c-0,11.859 4.024,19.212 10.89,25.852c7.102,6.879 14.932,10.199 21.1,13.046l14.236,6.641c8.303,3.795 14.472,6.641 18.979,10.911c5.695,5.216 7.829,11.384 7.829,18.499c0,15.891 -10.201,31.307 -31.79,31.307c-8.068,0 -15.897,-1.896 -22.778,-8.774c-4.5,-4.745 -8.287,-11.86 -9.471,-20.161l-17.057,4.744c2.133,9.487 6.876,20.398 14.691,27.98c10.888,10.651 23.937,12.781 34.377,12.781c28.469,0 50.021,-19.416 50.021,-48.588c0,-11.385 -3.314,-20.635 -11.364,-28.699c-6.629,-6.641 -15.17,-10.911 -24.422,-14.942l-15.184,-6.642c-5.932,-2.608 -11.863,-5.218 -16.609,-9.961c-4.27,-4.033 -5.931,-7.59 -5.931,-13.757c0,-14.705 10.915,-24.429 26.573,-24.429c9.016,-0 14.71,3.084 17.793,5.454c3.559,2.846 7.118,7.591 9.253,11.86l13.972,-9.25Z" style="fill:#1c2137;fill-rule:nonzero;"/><path d="M2311.43,91.315l-17.518,-0l0,158.133l17.518,0l-0,-77.302l81.126,-0l0,77.302l17.518,0l-0,-158.133l-17.518,-0l0,64.261l-81.126,0l-0,-64.261Z" style="fill:#1c2137;fill-rule:nonzero;"/><rect x="2450.89" y="91.315" width="17.517" height="158.133" style="fill:#1c2137;"/><path d="M2526.74,249.448l0,-122.097l123.305,129.211l-0,-165.247l-17.518,-0l0,122.572l-123.305,-129.211l-0,164.772l17.518,0Z" style="fill:#1c2137;fill-rule:nonzero;"/><path d="M2766.49,186.61l46.962,-0c-0.475,9.965 -3.557,17.559 -6.404,22.541c-9.013,15.896 -27.277,26.573 -48.386,26.573c-29.884,0 -64.277,-21.828 -64.277,-64.972c0,-36.771 26.566,-65.476 64.752,-65.476c18.975,-0 30.833,7.116 38.424,13.285c5.218,4.271 10.435,9.964 14.942,16.37l13.024,-11.863c-4.497,-6.167 -11.127,-13.284 -18.242,-18.739c-15.416,-11.834 -33.206,-15.623 -48.386,-15.623c-47.199,0 -82.505,35.787 -82.505,81.808c-0,45.992 35.069,81.78 82.032,81.78c36.289,0 54.077,-22.027 58.817,-28.432c9.942,-13.525 15.15,-32.506 15.15,-50.034l-0,-3.787l-65.903,0l-0,16.569Z" style="fill:#1c2137;fill-rule:nonzero;"/></g></g><path d="M196.111,341.257l0,-318.432l-187.179,257.615l187.179,60.817Z" style="fill:#1c2137;fill-rule:nonzero;"/><path d="M214.003,331.854l117.784,-162.124l-117.784,-162.125l-0,324.249Z" style="fill:#1c2137;fill-rule:nonzero;"/><path d="M190.589,0l-190.589,61.925l-0,200.399l190.589,-262.324Z" style="fill:#1c2137;fill-rule:nonzero;"/></g></svg>