<?xml version="1.0" encoding="UTF-8" standalone="no"?><!DOCTYPE svg PUBLIC "-//W3C//DTD SVG 1.1//EN" "http://www.w3.org/Graphics/SVG/1.1/DTD/svg11.dtd"><svg width="100%" height="100%" viewBox="0 0 1819 352" version="1.1" xmlns="http://www.w3.org/2000/svg" xmlns:xlink="http://www.w3.org/1999/xlink" xml:space="preserve" xmlns:serif="http://www.serif.com/" style="fill-rule:evenodd;clip-rule:evenodd;stroke-linejoin:round;stroke-miterlimit:2;"><g><path d="M70.848,270.979c-12.332,0.18 -24.548,-2.426 -35.733,-7.623c-10.431,-4.83 -19.303,-12.486 -25.609,-22.096c-6.56,-10.518 -9.856,-22.748 -9.47,-35.138c-0.34,-9.295 1.711,-18.523 5.956,-26.8c4.06,-7.31 9.924,-13.462 17.033,-17.866c8.105,-4.979 16.921,-8.694 26.145,-11.018c10.919,-2.864 22.023,-4.973 33.232,-6.313c11.911,-1.489 22.214,-2.74 30.552,-3.871c6.612,-0.647 13.061,-2.441 19.058,-5.301c4.353,-2.306 6.935,-6.999 6.551,-11.911l-0,-5.062c0.686,-12.845 -4.048,-25.406 -13.043,-34.602c-10.342,-9 -23.841,-13.542 -37.52,-12.626c-13.345,-0.539 -26.537,3.06 -37.758,10.303c-8.936,5.836 -16.024,14.101 -20.428,23.823l-23.822,-8.517c4.365,-10.872 11.39,-20.477 20.427,-27.931c8.469,-6.96 18.252,-12.146 28.766,-15.247c10.484,-3.074 21.353,-4.639 32.279,-4.645c8.653,0.056 17.269,1.135 25.669,3.216c8.869,2.138 17.268,5.893 24.775,11.077c7.944,5.62 14.337,13.161 18.581,21.917c5.152,11.185 7.601,23.427 7.147,35.733l-0,145.614l-24.894,0l-0,-33.947l-1.489,0c-7.406,14.943 -19.977,26.71 -35.376,33.113c-9.848,3.99 -20.406,5.935 -31.029,5.718Zm3.335,-22.81c12.041,0.296 23.933,-2.734 34.364,-8.755c9.448,-5.646 17.204,-13.731 22.452,-23.405c5.279,-9.911 7.983,-20.992 7.862,-32.22l-0,-31.029c-2.721,2.234 -5.89,3.858 -9.291,4.765c-4.904,1.531 -9.896,2.764 -14.948,3.692c-5.599,1.072 -11.256,1.966 -16.795,2.74l-15.127,1.906c-10.576,1.157 -20.986,3.515 -31.029,7.027c-7.613,2.517 -14.419,7.02 -19.713,13.043c-4.72,6.078 -7.147,13.631 -6.849,21.321c-0.612,11.766 4.633,23.103 13.996,30.254c10.128,7.367 22.443,11.123 34.959,10.661l0.119,-0Z" style="fill:#1c2137;fill-rule:nonzero;"/><path d="M346.532,184.027l-0,-132.571l24.894,0l-0,214.401l-24.894,-0l-0,-35.138l-1.906,-0c-5.192,11.214 -13.452,20.734 -23.822,27.455c-11.9,7.627 -25.836,11.469 -39.962,11.018c-12.732,0.232 -25.304,-2.891 -36.448,-9.052c-10.75,-6.17 -19.451,-15.368 -25.014,-26.443c-6.452,-13.37 -9.578,-28.102 -9.112,-42.94l0,-139.301l24.597,0l-0,137.574c-0.688,14.918 4.66,29.502 14.829,40.438c9.939,10.223 23.747,15.785 37.997,15.306c9.739,-0.004 19.331,-2.396 27.931,-6.968c9.036,-4.77 16.657,-11.837 22.095,-20.487c6.113,-10.003 9.177,-21.575 8.815,-33.292Z" style="fill:#1c2137;fill-rule:nonzero;"/><path d="M499.292,351.022c-13.046,0.161 -26.028,-1.852 -38.413,-5.956c-10.178,-3.301 -19.623,-8.539 -27.813,-15.425c-7.168,-5.986 -13.131,-13.283 -17.569,-21.5l20.368,-13.459c3.415,5.838 7.579,11.204 12.388,15.961c5.829,5.618 12.711,10.03 20.249,12.983c9.827,3.719 20.287,5.48 30.79,5.181c16.547,0.742 32.848,-4.292 46.096,-14.234c11.673,-9.528 17.51,-24.298 17.51,-44.309l-0,-48.478l-2.263,-0c-3.207,7.034 -7.376,13.588 -12.388,19.474c-5.856,6.809 -13.08,12.308 -21.202,16.14c-10.145,4.59 -21.209,6.79 -32.339,6.432c-16.053,0.255 -31.841,-4.152 -45.441,-12.685c-13.672,-8.947 -24.536,-21.586 -31.326,-36.449c-7.985,-17.746 -11.873,-37.064 -11.375,-56.518c-0.412,-19.672 3.386,-39.207 11.137,-57.293c6.593,-15.473 17.358,-28.816 31.088,-38.532c13.684,-9.338 29.95,-14.17 46.513,-13.817c11.301,-0.43 22.535,1.944 32.696,6.908c8.109,4.139 15.237,9.968 20.904,17.093c4.834,6.131 8.969,12.783 12.328,19.832l2.561,-0l0,-40.915l24.299,0l-0,220.356c0.644,15.766 -3.398,31.375 -11.614,44.846c-7.637,11.674 -18.648,20.753 -31.564,26.026c-14.485,5.838 -30.006,8.675 -45.62,8.338Zm-1.667,-109.94c12.536,0.367 24.889,-3.126 35.376,-10.006c10.162,-7.146 17.994,-17.133 22.512,-28.706c5.505,-14.211 8.156,-29.37 7.802,-44.607c0.268,-15.22 -2.338,-30.354 -7.683,-44.607c-4.46,-12.094 -12.168,-22.729 -22.274,-30.731c-21.56,-15.178 -50.502,-15.178 -72.062,0c-10.188,8.16 -17.919,18.984 -22.334,31.267c-5.246,14.09 -7.811,29.038 -7.563,44.071c-0.26,14.754 2.349,29.419 7.682,43.178c4.457,11.898 12.28,22.246 22.512,29.778c10.609,7.181 23.229,10.81 36.032,10.363Z" style="fill:#1c2137;fill-rule:nonzero;"/><path d="M634.186,266.095l-0,-214.401l24.18,0l-0,32.994l2.203,0c4.073,-10.868 11.636,-20.086 21.5,-26.204c10.844,-6.629 23.386,-9.962 36.091,-9.589c12.99,-0.545 25.816,3.111 36.567,10.423c9.776,7.237 17.229,17.174 21.44,28.586l1.786,0c4.723,-11.772 13.067,-21.744 23.823,-28.467c11.994,-7.312 25.862,-10.976 39.902,-10.542c17.71,-0.899 34.962,5.954 47.228,18.76c11.554,12.586 17.331,30.87 17.331,54.851l-0,143.589l-24.895,0l0,-143.827c0,-16.914 -4.288,-29.778 -12.983,-38.116c-9.22,-8.696 -21.582,-13.297 -34.244,-12.745c-14.247,-0.889 -28.164,4.669 -37.878,15.128c-9.116,10.628 -13.921,24.299 -13.46,38.294l0,141.266l-25.37,0l-0,-146.031c0.57,-12.856 -3.8,-25.455 -12.209,-35.197c-8.782,-9.217 -21.175,-14.139 -33.887,-13.46c-9.38,-0.128 -18.608,2.391 -26.622,7.266c-7.934,4.908 -14.38,11.89 -18.641,20.19c-4.622,9.233 -6.932,19.453 -6.73,29.777l0,137.455l-25.132,0Z" style="fill:#1c2137;fill-rule:nonzero;"/><path d="M1038.87,270.562c-18.307,0.462 -36.357,-4.423 -51.932,-14.055c-14.793,-9.494 -26.556,-23.035 -33.888,-39.009c-8.265,-18.01 -12.337,-37.661 -11.911,-57.472c-0.39,-19.864 3.681,-39.566 11.911,-57.65c7.221,-15.955 18.674,-29.633 33.113,-39.545c14.48,-9.638 31.564,-14.626 48.955,-14.293c11.474,-0.023 22.85,2.119 33.53,6.313c10.99,4.364 20.935,11.001 29.182,19.475c9.04,9.38 16.001,20.562 20.428,32.815c5.358,14.99 7.922,30.836 7.564,46.751l-0,12.269l-167.59,-0l-0,-21.917l142.278,0c0.292,-12.867 -2.464,-25.623 -8.04,-37.222c-5.205,-10.653 -13.189,-19.708 -23.107,-26.205c-21.504,-13.281 -48.904,-12.791 -69.919,1.251c-10.413,7.349 -18.762,17.256 -24.239,28.765c-5.91,12.193 -8.946,25.579 -8.874,39.128l0,13.162c-0.338,15.339 2.691,30.566 8.874,44.607c5.304,12.175 14.064,22.531 25.192,29.778c19.854,11.618 43.888,13.803 65.512,5.956c7.261,-2.93 13.863,-7.284 19.415,-12.805c5.082,-5.134 9.127,-11.2 11.911,-17.866l23.822,7.682c-3.473,9.396 -8.939,17.929 -16.02,25.014c-7.87,7.942 -17.272,14.203 -27.634,18.403c-12.272,4.766 -25.373,7.034 -38.533,6.67Z" style="fill:#1c2137;fill-rule:nonzero;"/><path d="M1185.79,131.916l0,134.179l-24.894,0l-0,-214.401l24.18,0l-0,33.649l2.263,0c5.021,-10.966 13.217,-20.179 23.524,-26.442c11.987,-7.016 25.724,-10.487 39.605,-10.006c13.245,-0.308 26.35,2.789 38.056,8.993c11.003,6.06 19.929,15.298 25.609,26.502c6.481,13.341 9.629,28.057 9.171,42.881l0,138.824l-24.894,0l0,-137.514c0.775,-15.296 -4.538,-30.293 -14.77,-41.689c-10.372,-10.462 -24.709,-16.05 -39.426,-15.366c-10.481,-0.193 -20.838,2.31 -30.075,7.266c-8.633,4.916 -15.713,12.16 -20.428,20.904c-5.386,9.872 -8.116,20.976 -7.921,32.22Z" style="fill:#1c2137;fill-rule:nonzero;"/><path d="M1453.79,51.456l0,21.619l-102.376,-0l-0,-21.619l102.376,0Zm-70.395,-51.456l25.014,-0l-0,210.053c-0.375,7.291 1.209,14.551 4.585,21.023c2.741,4.754 6.909,8.526 11.912,10.78c4.997,2.088 10.366,3.141 15.782,3.097c2.811,0.044 5.621,-0.155 8.397,-0.596c2.323,-0.417 4.407,-0.893 5.956,-1.31l5.36,22.453c-2.934,1.08 -5.938,1.956 -8.993,2.62c-4.313,0.859 -8.705,1.258 -13.102,1.191c-9.129,0.013 -18.145,-2.023 -26.384,-5.955c-8.388,-3.983 -15.549,-10.157 -20.725,-17.867c-5.707,-8.851 -8.537,-19.256 -8.1,-29.778l0.298,-215.711Z" style="fill:#1c2137;fill-rule:nonzero;"/><rect x="1567.96" y="45.203" width="46.692" height="220.892" style="fill:#1c2137;fill-rule:nonzero;"/><path d="M1637.16,83.676l0,-38.473l181.407,-0l0,38.473l-67.596,-0l0,182.419l-46.155,0l-0,-182.419l-67.656,-0Z" style="fill:#1c2137;fill-rule:nonzero;"/></g></svg>