<?xml version="1.0" encoding="UTF-8" standalone="no"?><!DOCTYPE svg PUBLIC "-//W3C//DTD SVG 1.1//EN" "http://www.w3.org/Graphics/SVG/1.1/DTD/svg11.dtd"><svg width="100%" height="100%" viewBox="0 0 893 431" version="1.1" xmlns="http://www.w3.org/2000/svg" xmlns:xlink="http://www.w3.org/1999/xlink" xml:space="preserve" xmlns:serif="http://www.serif.com/" style="fill-rule:evenodd;clip-rule:evenodd;stroke-linejoin:round;stroke-miterlimit:2;"><g><path d="M892.5,0.094l-70.016,121.474l-70.017,-121.474l140.033,-0Z" style="fill:#1c2137;fill-rule:nonzero;"/><path d="M0,430.316l0,-129.699l74.867,129.699l-74.867,-0Z" style="fill:#1c2137;fill-rule:nonzero;"/><path d="M0,0.094l103.549,-0c2.319,-0 4.85,1.054 6.537,4.218c34.587,60.526 214.69,371.804 245.902,426.004c-51.036,-0 -179.259,0.211 -194.655,-0c-2.319,-0 -4.85,-1.055 -6.326,-3.796c-43.444,-74.656 -111.774,-193.389 -155.007,-268.467l-0,-157.959Z" style="fill:#1c2137;fill-rule:nonzero;"/><path d="M599.569,430.316l-157.115,-0c-3.796,-0 -5.694,-2.109 -6.749,-3.796c-71.071,-123.584 -178.204,-311.279 -245.901,-426.426c51.036,-0 180.314,-0.211 195.709,-0c2.741,-0 5.061,1.476 6.538,3.796c7.803,13.497 155.639,270.787 207.729,359.784c-0.211,24.463 -0.211,39.648 -0.211,66.642Z" style="fill:#1c2137;fill-rule:nonzero;"/><path d="M821.429,260.969c-35.641,-61.581 -99.963,-172.511 -148.258,-256.868c-1.054,-1.898 -3.374,-3.796 -6.327,-4.007l-195.076,-0c33.321,57.152 157.748,273.106 208.995,361.893c0.633,1.265 0.844,2.53 0.844,3.374l-0,64.955l140.877,-0l-0,-165.551c-0,-1.898 -0.633,-2.953 -1.055,-3.796Z" style="fill:#1c2137;fill-rule:nonzero;"/></g></svg>