<?xml version="1.0" encoding="UTF-8" standalone="no"?><!DOCTYPE svg PUBLIC "-//W3C//DTD SVG 1.1//EN" "http://www.w3.org/Graphics/SVG/1.1/DTD/svg11.dtd"><svg width="100%" height="100%" viewBox="0 0 2296 213" version="1.1" xmlns="http://www.w3.org/2000/svg" xmlns:xlink="http://www.w3.org/1999/xlink" xml:space="preserve" xmlns:serif="http://www.serif.com/" style="fill-rule:evenodd;clip-rule:evenodd;stroke-linejoin:round;stroke-miterlimit:2;"><g><path d="M1833.13,212.523l185.143,0c3.454,0 6.761,-3.388 6.761,-6.625l-0,-34.879c-0,-3.126 -3.318,-6.5 -6.761,-6.5l-95.89,-0l0,-68.258c0,-33.517 14.283,-46.518 48.712,-46.518l35.44,0c3.182,0 6.761,-3.375 6.761,-6.613l-0,-34.879c-0,-3.125 -3.579,-6.626 -6.761,-6.626l-42.087,0c-60.563,0 -96.014,36.242 -96.014,96.386l-0,66.508l-35.315,-0c-3.318,-0 -6.761,3.374 -6.761,6.5l-0,34.879c-0,3.362 3.454,6.625 6.772,6.625Zm-1097.89,-210.898l-188.592,0c-3.698,0 -6.759,3.376 -6.759,6.626l0,34.879c0,3.25 3.316,6.613 6.759,6.613l40.549,0l-0,79.759c-0,59.881 25.247,83.021 82.374,83.021l45.522,0c3.443,0 6.758,-3.388 6.758,-6.625l-0,-34.879c-0,-3.251 -3.315,-6.5 -6.758,-6.5l-33.664,-0c-18.872,-0 -40.421,-1.376 -40.421,-35.017l-0,-79.759l94.232,0c3.571,0 6.759,-3.375 6.759,-6.613l-0,-34.879c-0,-3.263 -3.188,-6.626 -6.759,-6.626Zm246.611,0l-87.602,0c-60.824,0 -96.018,36.629 -96.018,96.386l0,19.878c0,59.756 35.194,94.634 96.018,94.634l80.844,0c3.443,0 6.758,-3.263 6.758,-6.625l-0,-34.879c-0,-3.251 -3.315,-6.5 -6.758,-6.5l-74.085,-0c-35.322,-0 -48.838,-13.378 -48.838,-46.63l-0,-21.628c-0,-34.879 12.751,-46.518 47.18,-46.518l82.501,0c3.315,0 6.746,-3.488 6.746,-6.613l-0,-34.879c-0,-3.263 -3.303,-6.626 -6.746,-6.626Zm-857.272,0l-43.738,0c-47.179,0 -80.843,25.128 -80.843,78.134l0,126.139c0,3.362 3.315,6.625 6.631,6.625l40.549,0c3.315,0 6.758,-3.263 6.758,-6.625l0,-122.889c0,-19.877 10.074,-33.253 33.664,-33.253l26.905,-0c40.421,-0 47.18,10.001 47.18,39.879l-0,116.263c-0,3.375 3.316,6.625 6.758,6.625l40.422,0c3.188,0 6.758,-3.263 6.758,-6.625l0,-116.263c0,-59.757 -26.905,-88.01 -91.044,-88.01Zm1384.14,0l-188.711,0c-3.556,0 -6.635,3.376 -6.635,6.626l-0,34.879c-0,3.25 3.317,6.613 6.635,6.613l40.417,0l0,79.759c0,59.881 25.248,83.021 82.516,83.021l45.507,0c3.454,0 6.761,-3.388 6.761,-6.625l-0,-34.879c-0,-3.251 -3.318,-6.5 -6.761,-6.5l-33.656,-0c-18.873,-0 -40.428,-1.376 -40.428,-35.017l-0,-79.759l94.344,0c3.329,0 6.647,-3.375 6.647,-6.613l-0,-34.879c0.011,-3.263 -3.307,-6.626 -6.636,-6.626Zm641.671,127.877l90.913,0c-0.125,3.887 -0,11.639 -0,15.001c-0,16.502 -10.079,21.628 -25.237,21.628l-65.664,-0c-10.079,-0 -18.499,-6.626 -18.499,-18.389l0,-1.626c-0.023,-13.227 8.409,-16.614 18.487,-16.614Zm-69.119,21.639c0,36.505 30.35,61.382 70.767,61.382l69.119,0c48.836,0 74.095,-29.253 74.095,-69.632l0,-54.381c0,-60.144 -28.815,-86.885 -89.253,-86.885l-89.265,0c-3.454,0 -6.761,3.376 -6.761,6.626l0,34.879c0,3.125 3.568,6.613 6.761,6.613l85.799,0c28.691,0 38.77,5 38.77,34.879l-89.265,-0c-40.928,-0 -70.767,20.015 -70.767,63.132l0,3.387Zm-1752.16,-66.507c0,-24.877 15.429,-38.254 51.133,-38.254l11.476,0c33.409,0 45.14,13.364 46.797,38.254l-109.406,0Zm132.996,121.264l0,-34.879c0,-3.126 -3.315,-6.5 -6.63,-6.5l-77.528,-0c-30.349,-0 -43.864,-5.001 -47.18,-35.017l124.708,0c26.905,0 36.979,-16.49 36.979,-33.241l-0,-6.626c-0,-52.131 -33.664,-89.635 -94.36,-89.635l-23.59,-0c-60.441,-0 -99.333,34.116 -99.333,93.885l-0,20.753c-0,60.006 33.664,97.885 99.333,97.885l80.971,0c3.315,0 6.63,-3.263 6.63,-6.625Zm639.99,-121.264c-0,-24.877 15.429,-38.254 51.131,-38.254l11.476,0c33.542,0 45.269,13.364 46.927,38.254l-109.534,0Zm133.123,121.264l0,-34.879c0,-3.126 -3.329,-6.5 -6.885,-6.5l-77.403,-0c-30.218,-0 -43.735,-5.001 -47.05,-35.017l124.464,0c27.032,0 37.11,-16.49 37.11,-33.241l0,-6.626c-0.011,-52.131 -33.565,-89.635 -94.241,-89.635l-23.601,-0c-60.564,-0 -99.327,34.116 -99.327,93.885l-0,20.753c-0,60.006 33.663,97.885 99.327,97.885l80.721,0c3.556,0 6.885,-3.263 6.885,-6.625Zm387.001,-121.264c-0,-24.877 15.43,-38.254 51.131,-38.254l11.363,0c33.543,0 45.269,13.364 46.928,38.254l-109.422,0Zm133.124,121.264l0,-34.879c0,-3.126 -3.329,-6.5 -6.761,-6.5l-77.652,-0c-30.213,-0 -43.61,-5.001 -47.053,-35.017l124.705,0c26.657,0 36.725,-16.49 36.725,-33.241l-0,-6.626c-0,-52.131 -33.282,-89.635 -94.095,-89.635l-23.611,-0c-60.563,-0 -99.321,34.116 -99.321,93.885l0,20.753c0,60.006 33.668,97.885 99.321,97.885l80.981,0c3.432,0 6.761,-3.263 6.761,-6.625Z" style="fill:#1c2137;"/></g></svg>