<svg width="624" height="432" viewBox="0 0 624 432" fill="none" xmlns="http://www.w3.org/2000/svg">
<mask id="mask0_4563_2175" style="mask-type:alpha" maskUnits="userSpaceOnUse" x="0" y="0" width="624" height="432">
<rect width="624" height="432" fill="#FCFCFE"/>
<rect width="624" height="432" fill="#122232"/>
</mask>
<g mask="url(#mask0_4563_2175)">
<rect width="624" height="432" fill="#FCFCFE"/>
<rect width="624" height="432" fill="#122232"/>
<ellipse cx="613.175" cy="-68.8524" rx="307.506" ry="308.455" transform="rotate(-90 613.175 -68.8524)" fill="url(#paint0_linear_4563_2175)"/>
<rect x="650" y="-17.6255" width="640.742" height="757.12" transform="rotate(90 650 -17.6255)" fill="url(#paint1_linear_4563_2175)"/>
<path d="M302.677 199.966C301.933 199.966 301.308 199.738 300.802 199.283C300.297 198.828 300.044 198.153 300.044 197.257V190.706H298.212V189.32H300.044V186.359H301.561V189.32H304.278V190.706H301.561V196.774C301.561 197.362 301.652 197.803 301.835 198.097C302.017 198.391 302.389 198.538 302.951 198.538C303.204 198.538 303.449 198.513 303.688 198.464C303.927 198.415 304.123 198.356 304.278 198.286V199.714C304.081 199.784 303.832 199.843 303.53 199.892C303.228 199.941 302.944 199.966 302.677 199.966Z" fill="white"/>
<path d="M306.594 199.798V184.68H308.111V190.497L307.942 190.097C308.476 189.803 309.037 189.569 309.627 189.394C310.217 189.219 310.771 189.132 311.291 189.132C312.162 189.132 312.895 189.293 313.492 189.614C314.089 189.936 314.545 190.423 314.861 191.074C315.177 191.725 315.335 192.561 315.335 193.583V199.798H313.818V193.583C313.818 192.603 313.594 191.847 313.144 191.315C312.695 190.783 312.021 190.517 311.122 190.517C310.631 190.517 310.136 190.588 309.637 190.728C309.139 190.867 308.63 191.077 308.111 191.357V199.798H306.594Z" fill="white"/>
<path d="M322.623 200.112C321.625 200.112 320.762 199.906 320.032 199.493C319.302 199.08 318.74 198.46 318.347 197.634C317.954 196.809 317.757 195.78 317.757 194.548C317.757 192.742 318.168 191.388 318.989 190.485C319.811 189.582 320.938 189.13 322.37 189.13C323.493 189.13 324.395 189.383 325.076 189.886C325.757 190.39 326.245 191.069 326.54 191.923C326.835 192.777 326.975 193.743 326.961 194.821H318.515L318.621 193.435H325.971L325.382 193.645C325.339 192.595 325.076 191.811 324.592 191.293C324.107 190.775 323.367 190.516 322.37 190.516C321.682 190.516 321.11 190.642 320.653 190.894C320.197 191.146 319.856 191.584 319.632 192.207C319.407 192.829 319.295 193.701 319.295 194.821C319.295 196.095 319.593 197.064 320.19 197.729C320.787 198.394 321.625 198.726 322.707 198.726C323.226 198.726 323.704 198.688 324.139 198.611C324.574 198.534 324.975 198.425 325.339 198.285C325.705 198.145 326.027 197.991 326.308 197.823V199.377C325.803 199.615 325.245 199.797 324.634 199.923C324.023 200.049 323.353 200.112 322.623 200.112Z" fill="white"/>
<path d="M293.117 240.307C293.951 240.307 294.628 240.593 295.147 241.167C295.665 241.74 295.924 242.443 295.924 243.274C295.924 244.106 295.665 244.797 295.147 245.348C294.628 245.899 293.951 246.174 293.117 246.174H287.942C285.958 246.174 284.125 245.831 282.445 245.146C280.766 244.46 279.272 243.522 277.964 242.33C276.656 241.139 275.602 239.734 274.801 238.115C274.001 236.496 273.544 234.743 273.431 232.855C273.431 232 273.719 231.292 274.294 230.73C274.869 230.168 275.607 229.887 276.509 229.887C277.479 229.887 278.246 230.174 278.809 230.747C279.373 231.32 279.655 232.023 279.655 232.855C279.655 233.911 279.903 234.895 280.399 235.805C280.895 236.716 281.521 237.503 282.276 238.166C283.032 238.829 283.894 239.352 284.864 239.734C285.834 240.116 286.86 240.307 287.942 240.307H293.117ZM292.779 211.577C293.613 211.577 294.29 211.864 294.808 212.437C295.327 213.01 295.586 213.713 295.586 214.545C295.586 215.376 295.327 216.068 294.808 216.618C294.29 217.169 293.613 217.444 292.779 217.444H287.942C286.86 217.444 285.834 217.635 284.864 218.018C283.894 218.4 283.032 218.923 282.276 219.586C281.521 220.249 280.895 221.036 280.399 221.946C279.903 222.857 279.655 223.84 279.655 224.897C279.655 225.751 279.373 226.459 278.809 227.021C278.246 227.583 277.479 227.864 276.509 227.864C275.562 227.864 274.812 227.583 274.26 227.021C273.708 226.459 273.431 225.751 273.431 224.897C273.431 223.008 273.826 221.255 274.615 219.636C275.404 218.018 276.464 216.613 277.795 215.421C279.125 214.23 280.653 213.291 282.378 212.606C284.103 211.92 285.958 211.577 287.942 211.577H292.779Z" fill="white"/>
<path d="M326.962 224.896C326.962 225.75 326.674 226.458 326.099 227.02C325.524 227.582 324.763 227.863 323.816 227.863C322.869 227.863 322.119 227.593 321.567 227.052C321.014 226.511 320.738 225.789 320.738 224.887C320.738 223.782 320.529 222.733 320.112 221.741C319.695 220.749 319.126 219.881 318.404 219.137C317.682 218.393 316.809 217.807 315.783 217.378C314.757 216.95 313.691 216.735 312.586 216.735C311.436 216.735 310.348 216.95 309.322 217.378C308.296 217.807 307.428 218.387 306.718 219.12C306.007 219.853 305.449 220.715 305.044 221.708C304.638 222.7 304.435 223.759 304.435 224.887C304.435 225.744 304.153 226.454 303.589 227.018C303.025 227.581 302.258 227.863 301.289 227.863C300.387 227.863 299.648 227.594 299.074 227.054C298.498 226.514 298.211 225.795 298.211 224.896C298.211 222.94 298.623 221.114 299.445 219.416C300.269 217.719 301.34 216.235 302.659 214.965C303.978 213.695 305.449 212.695 307.073 211.964C308.696 211.233 310.534 210.868 312.586 210.868C314.616 210.868 316.448 211.239 318.083 211.981C319.718 212.723 321.195 213.734 322.514 215.016C323.833 216.297 324.904 217.787 325.727 219.484C326.55 221.181 326.962 222.985 326.962 224.896ZM326.962 232.854C326.962 234.742 326.556 236.535 325.744 238.232C324.932 239.93 323.872 241.419 322.565 242.7C321.257 243.982 319.785 244.993 318.15 245.735C316.516 246.477 314.661 246.848 312.586 246.848C310.512 246.848 308.657 246.477 307.022 245.735C305.387 244.993 303.893 243.987 302.54 242.717C301.188 241.447 300.128 239.963 299.361 238.266C298.594 236.569 298.211 234.765 298.211 232.854C298.211 232.449 298.29 232.067 298.448 231.707C298.606 231.348 298.814 231.033 299.074 230.763C299.333 230.494 299.637 230.28 299.987 230.123C300.336 229.965 300.77 229.887 301.289 229.887C302.258 229.887 303.025 230.173 303.589 230.746C304.153 231.32 304.435 232.022 304.435 232.854C304.435 234 304.638 235.074 305.044 236.074C305.449 237.075 306.007 237.935 306.718 238.654C307.428 239.373 308.296 239.941 309.322 240.357C310.348 240.773 311.436 240.981 312.586 240.981C313.714 240.981 314.791 240.767 315.817 240.34C316.843 239.913 317.716 239.334 318.438 238.603C319.16 237.873 319.723 237.013 320.129 236.024C320.535 235.034 320.738 233.978 320.738 232.854C320.738 232 321.014 231.292 321.567 230.73C322.119 230.168 322.869 229.887 323.816 229.887C324.763 229.887 325.524 230.173 326.099 230.746C326.674 231.32 326.962 232.022 326.962 232.854Z" fill="white"/>
<path d="M358.811 243.139C358.811 243.904 358.574 244.567 358.101 245.129C357.627 245.691 356.973 245.994 356.139 246.039L346.262 246.444H345.044C342.992 246.444 341.098 246.045 339.362 245.247C337.625 244.449 336.098 243.375 334.778 242.026C333.459 240.677 332.411 239.126 331.633 237.373C330.855 235.62 330.466 233.787 330.466 231.876V225.234C330.466 223.368 330.816 221.592 331.514 219.906C332.214 218.22 333.161 216.736 334.356 215.455C335.551 214.173 336.949 213.151 338.55 212.386C340.151 211.622 341.921 211.24 343.861 211.24L347.277 211.374C348.134 211.419 348.816 211.717 349.323 212.268C349.831 212.819 350.084 213.51 350.084 214.342C350.084 215.241 349.808 215.949 349.256 216.466C348.703 216.983 348.044 217.242 347.277 217.242L344.469 217.107H344.199C343.139 217.107 342.141 217.321 341.205 217.748C340.27 218.175 339.458 218.759 338.77 219.501C338.082 220.243 337.564 221.108 337.214 222.098C336.864 223.087 336.69 224.132 336.69 225.234V231.876C336.69 233.023 336.887 234.125 337.282 235.181C337.676 236.238 338.262 237.165 339.041 237.963C339.819 238.761 340.721 239.396 341.746 239.868C342.772 240.34 343.849 240.576 344.977 240.576L355.936 240.172C356.342 240.149 356.731 240.217 357.103 240.374C357.475 240.531 357.774 240.745 357.999 241.015C358.225 241.284 358.416 241.605 358.574 241.976C358.732 242.347 358.811 242.734 358.811 243.139ZM352.147 203.079C352.147 202.247 352.418 201.545 352.959 200.972C353.5 200.399 354.256 200.112 355.226 200.112C356.173 200.112 356.934 200.399 357.509 200.972C358.084 201.545 358.371 202.247 358.371 203.079V235.316C358.371 236.17 358.084 236.867 357.509 237.407C356.934 237.946 356.173 238.216 355.226 238.216C354.256 238.216 353.5 237.946 352.959 237.407C352.418 236.867 352.147 236.17 352.147 235.316V203.079Z" fill="white"/>
<path d="M371.718 228.909C371.718 228.077 371.966 227.374 372.462 226.801C372.958 226.228 373.623 225.941 374.458 225.941H387.413V225.231C387.413 224.08 387.215 222.986 386.821 221.948C386.426 220.91 385.874 220.007 385.163 219.24C384.453 218.473 383.607 217.863 382.626 217.412C381.646 216.961 380.456 216.735 379.058 216.735C377.908 216.735 376.82 216.95 375.794 217.378C374.768 217.807 373.866 218.387 373.088 219.12C372.31 219.853 371.718 220.715 371.312 221.708C370.906 222.7 370.703 223.759 370.703 224.887C370.703 225.744 370.422 226.454 369.858 227.018C369.294 227.581 368.527 227.863 367.558 227.863C366.656 227.863 365.917 227.594 365.342 227.054C364.767 226.514 364.48 225.795 364.48 224.896C364.48 222.94 364.88 221.114 365.68 219.416C366.481 217.719 367.529 216.235 368.826 214.965C370.123 213.695 371.639 212.695 373.375 211.964C375.112 211.233 377.006 210.868 379.058 210.868C381.313 210.868 383.297 211.25 385.011 212.015C386.725 212.779 388.224 213.819 389.51 215.134C390.795 216.449 391.804 217.972 392.537 219.703C393.27 221.434 393.636 223.277 393.636 225.233V228.909C393.636 229.313 393.557 229.696 393.399 230.055C393.242 230.415 393.028 230.724 392.757 230.982C392.486 231.241 392.171 231.443 391.81 231.59C391.449 231.735 391.066 231.809 390.66 231.809H374.458C373.623 231.809 372.958 231.533 372.462 230.982C371.966 230.432 371.718 229.74 371.718 228.909ZM386.026 240.306C386.748 240.306 387.396 240.593 387.971 241.166C388.546 241.739 388.833 242.442 388.833 243.274C388.833 244.105 388.546 244.797 387.971 245.347C387.396 245.898 386.748 246.173 386.026 246.173H378.517C376.442 246.173 374.565 245.842 372.885 245.179C371.205 244.516 369.734 243.594 368.471 242.414C367.208 241.234 366.227 239.828 365.528 238.199C364.829 236.569 364.48 234.787 364.48 232.854C364.48 232.022 364.756 231.32 365.308 230.746C365.861 230.173 366.611 229.887 367.558 229.887C368.527 229.887 369.294 230.173 369.858 230.746C370.422 231.32 370.703 232.022 370.703 232.854C370.703 233.955 370.873 234.961 371.211 235.872C371.549 236.782 372.073 237.569 372.784 238.232C373.494 238.895 374.34 239.407 375.32 239.767C376.301 240.126 377.367 240.306 378.517 240.306H386.026Z" fill="white"/>
<path d="M399.305 220.681C399.305 219.4 399.559 218.202 400.066 217.09C400.574 215.977 401.25 214.999 402.096 214.156C402.942 213.313 403.928 212.65 405.056 212.167C406.183 211.683 407.412 211.441 408.742 211.441H409.385L414.797 211.576C415.699 211.621 416.392 211.919 416.877 212.47C417.362 213.021 417.604 213.712 417.604 214.544C417.604 214.949 417.537 215.331 417.401 215.69C417.266 216.05 417.08 216.365 416.843 216.635C416.607 216.904 416.302 217.112 415.93 217.258C415.558 217.404 415.158 217.466 414.729 217.444L408.742 217.309C408.269 217.286 407.829 217.365 407.423 217.545C407.017 217.725 406.662 217.966 406.358 218.27C406.053 218.573 405.839 218.933 405.715 219.349C405.591 219.765 405.529 220.209 405.529 220.681V243.948C405.529 244.802 405.241 245.499 404.667 246.039C404.092 246.578 403.33 246.848 402.383 246.848C401.436 246.848 400.687 246.578 400.134 246.039C399.582 245.499 399.305 244.802 399.305 243.948V220.681Z" fill="white"/>
<path d="M235.305 243.139C235.305 243.904 235.068 244.567 234.594 245.129C234.121 245.691 233.467 245.994 232.632 246.039L222.756 246.444H221.538C219.486 246.444 217.592 246.045 215.855 245.247C214.119 244.449 212.591 243.375 211.272 242.026C209.953 240.677 208.905 239.126 208.127 237.373C207.349 235.62 206.96 233.787 206.96 231.876V225.234C206.96 223.368 207.309 221.592 208.008 219.906C208.707 218.22 209.654 216.736 210.85 215.455C212.045 214.173 213.443 213.151 215.044 212.386C216.645 211.622 218.415 211.24 220.354 211.24L223.77 211.374C224.627 211.419 225.309 211.717 225.817 212.268C226.324 212.819 226.578 213.51 226.578 214.342C226.578 215.241 226.302 215.949 225.749 216.466C225.197 216.983 224.537 217.242 223.77 217.242L220.963 217.107H220.692C219.633 217.107 218.635 217.321 217.699 217.748C216.763 218.175 215.951 218.759 215.264 219.501C214.576 220.243 214.057 221.108 213.708 222.098C213.358 223.087 213.183 224.132 213.183 225.234V231.876C213.183 233.023 213.381 234.125 213.775 235.181C214.17 236.238 214.756 237.165 215.534 237.963C216.312 238.761 217.214 239.396 218.24 239.868C219.266 240.34 220.343 240.576 221.47 240.576L232.43 240.172C232.835 240.149 233.224 240.217 233.597 240.374C233.968 240.531 234.267 240.745 234.493 241.015C234.718 241.284 234.91 241.605 235.068 241.976C235.226 242.347 235.305 242.734 235.305 243.139ZM228.641 203.079C228.641 202.247 228.912 201.545 229.453 200.972C229.994 200.399 230.75 200.112 231.719 200.112C232.666 200.112 233.427 200.399 234.002 200.972C234.577 201.545 234.865 202.247 234.865 203.079V235.316C234.865 236.17 234.577 236.867 234.002 237.407C233.427 237.946 232.666 238.216 231.719 238.216C230.75 238.216 229.994 237.946 229.453 237.407C228.912 236.867 228.641 236.17 228.641 235.316V203.079Z" fill="url(#paint2_linear_4563_2175)"/>
<path d="M248.212 228.909C248.212 228.077 248.46 227.374 248.956 226.801C249.452 226.228 250.118 225.941 250.952 225.941H263.907V225.231C263.907 224.08 263.709 222.986 263.315 221.948C262.92 220.91 262.368 220.007 261.657 219.24C260.947 218.473 260.101 217.863 259.121 217.412C258.139 216.961 256.95 216.735 255.552 216.735C254.402 216.735 253.314 216.95 252.288 217.378C251.262 217.807 250.36 218.387 249.582 219.12C248.804 219.853 248.212 220.715 247.806 221.708C247.4 222.7 247.197 223.759 247.197 224.887C247.197 225.744 246.915 226.454 246.352 227.018C245.788 227.581 245.021 227.863 244.052 227.863C243.15 227.863 242.411 227.594 241.836 227.054C241.261 226.514 240.974 225.795 240.974 224.896C240.974 222.94 241.374 221.114 242.174 219.416C242.975 217.719 244.023 216.235 245.32 214.965C246.617 213.695 248.133 212.695 249.869 211.964C251.606 211.233 253.5 210.868 255.552 210.868C257.807 210.868 259.791 211.25 261.505 212.015C263.219 212.779 264.718 213.819 266.004 215.134C267.289 216.449 268.298 217.972 269.031 219.703C269.764 221.434 270.13 223.277 270.13 225.233V228.909C270.13 229.313 270.052 229.696 269.894 230.055C269.736 230.415 269.521 230.724 269.251 230.982C268.98 231.241 268.665 231.443 268.304 231.59C267.943 231.735 267.56 231.809 267.154 231.809H250.952C250.118 231.809 249.452 231.533 248.956 230.982C248.46 230.432 248.212 229.74 248.212 228.909ZM262.52 240.306C263.241 240.306 263.89 240.593 264.465 241.166C265.04 241.739 265.327 242.442 265.327 243.274C265.327 244.105 265.04 244.797 264.465 245.347C263.89 245.898 263.241 246.173 262.52 246.173H255.011C252.936 246.173 251.059 245.842 249.379 245.179C247.699 244.516 246.228 243.594 244.965 242.414C243.702 241.234 242.721 239.828 242.022 238.199C241.323 236.569 240.974 234.787 240.974 232.854C240.974 232.022 241.25 231.32 241.802 230.746C242.355 230.173 243.105 229.887 244.052 229.887C245.021 229.887 245.788 230.173 246.352 230.746C246.915 231.32 247.197 232.022 247.197 232.854C247.197 233.955 247.366 234.961 247.705 235.872C248.043 236.782 248.567 237.569 249.277 238.232C249.988 238.895 250.833 239.407 251.814 239.767C252.795 240.126 253.861 240.306 255.011 240.306H262.52Z" fill="url(#paint3_linear_4563_2175)"/>
</g>
<defs>
<linearGradient id="paint0_linear_4563_2175" x1="613.175" y1="-377.308" x2="613.175" y2="239.603" gradientUnits="userSpaceOnUse">
<stop stop-color="#385CFA"/>
<stop offset="1" stop-color="#122232" stop-opacity="0"/>
</linearGradient>
<linearGradient id="paint1_linear_4563_2175" x1="970.372" y1="-17.6255" x2="970.372" y2="739.495" gradientUnits="userSpaceOnUse">
<stop stop-color="#385CFA"/>
<stop offset="1" stop-color="#122232" stop-opacity="0"/>
</linearGradient>
<linearGradient id="paint2_linear_4563_2175" x1="221.132" y1="200.112" x2="221.132" y2="246.444" gradientUnits="userSpaceOnUse">
<stop stop-color="#66B3FF"/>
<stop offset="1" stop-color="#385CFA"/>
</linearGradient>
<linearGradient id="paint3_linear_4563_2175" x1="255.552" y1="210.868" x2="255.552" y2="246.173" gradientUnits="userSpaceOnUse">
<stop stop-color="#66B3FF"/>
<stop offset="1" stop-color="#385CFA"/>
</linearGradient>
</defs>
</svg>
