<svg width="624" height="432" viewBox="0 0 624 432" fill="none" xmlns="http://www.w3.org/2000/svg">
<mask id="mask0_4563_2136" style="mask-type:alpha" maskUnits="userSpaceOnUse" x="0" y="0" width="624" height="432">
<path d="M0 0H624V432H0V0Z" fill="#FCFCFE"/>
<path d="M0 0H624V432H0V0Z" fill="#122232"/>
</mask>
<g mask="url(#mask0_4563_2136)">
<path d="M0 0H624V432H0V0Z" fill="#FCFCFE"/>
<path d="M0 0H624V432H0V0Z" fill="#122232"/>
<ellipse cx="307.506" cy="308.455" rx="307.506" ry="308.455" transform="matrix(-1.31539e-07 -1 -1 1.30731e-07 326.751 238.654)" fill="url(#paint0_linear_4563_2136)"/>
<path d="M-18.5293 -17.6255L-18.5293 623.117L738.591 623.117L738.591 -17.6255L-18.5293 -17.6255Z" fill="url(#paint1_linear_4563_2136)"/>
<path d="M174.681 203.675C172.994 204.607 171.647 206.453 170.64 209.214C169.951 211.103 169.795 212.628 170.173 213.791C170.549 214.953 171.548 215.873 173.169 216.551L177.58 218.331C178.371 218.622 178.873 218.943 179.085 219.294C179.297 219.645 179.248 220.245 178.939 221.092C178.577 222.085 178.089 222.739 177.477 223.054C176.865 223.369 175.818 223.526 174.339 223.526C173.975 223.526 171.23 223.465 166.105 223.344L164.32 227.339C167.003 227.969 169.764 228.284 172.603 228.284C176.097 228.284 178.707 227.782 180.433 226.777C182.158 225.772 183.533 223.865 184.557 221.056C185.247 219.167 185.405 217.635 185.033 216.461C184.66 215.286 183.627 214.36 181.933 213.682L177.761 212.047C176.865 211.708 176.302 211.357 176.07 210.994C175.839 210.631 175.872 210.037 176.173 209.214C176.544 208.197 177.018 207.561 177.597 207.307C178.175 207.053 179.192 206.926 180.648 206.926C183.778 206.926 186.386 206.962 188.471 207.035L190.212 203.257C188.145 202.603 185.51 202.276 182.307 202.276C178.909 202.276 176.368 202.743 174.681 203.675Z" fill="white"/>
<path d="M205.08 210.595C204.515 212.145 203.874 213.186 203.158 213.719C202.442 214.251 201.364 214.53 199.923 214.554H196.028L198.89 206.708L202.799 206.672C204.23 206.672 205.109 206.938 205.437 207.47C205.764 208.004 205.645 209.045 205.08 210.595ZM204.458 202.422C200.357 202.422 197.138 202.531 194.802 202.749L185.66 227.812H191.193L194.585 218.513C196.066 218.707 197.609 218.804 199.21 218.804C202.389 218.804 204.801 218.229 206.447 217.078C208.091 215.929 209.492 213.767 210.649 210.595C211.806 207.422 211.943 205.268 211.061 204.129C210.177 202.991 207.976 202.422 204.458 202.422Z" fill="white"/>
<path d="M223.466 209.287L222.782 216.951H216.521L221.428 209.287C221.598 209.021 221.84 208.621 222.156 208.088C222.472 207.556 222.698 207.168 222.835 206.926H223.818C223.734 207.289 223.617 208.076 223.466 209.287ZM227.453 202.749H222.211C221.75 202.749 221.289 202.882 220.828 203.148C220.367 203.415 220.007 203.765 219.752 204.201L203.896 227.812H209.575L213.793 221.237H222.42L221.842 227.812H227.484L228.852 204.201C228.962 203.233 228.496 202.749 227.453 202.749Z" fill="white"/>
<path d="M238.993 205.218C236.709 207.156 234.697 210.509 232.958 215.28C231.217 220.051 230.783 223.404 231.653 225.341C232.524 227.279 234.901 228.248 238.784 228.248C241.963 228.248 244.768 227.909 247.199 227.23L248.223 223.126C246.469 223.344 243.906 223.453 240.533 223.453C238.713 223.453 237.679 222.877 237.431 221.727C237.183 220.578 237.633 218.428 238.782 215.28C239.93 212.132 241.047 209.982 242.134 208.832C243.221 207.682 244.674 207.107 246.494 207.107C249.237 207.107 251.568 207.168 253.49 207.289L255.474 203.148C253.468 202.591 251.058 202.312 248.244 202.312C244.361 202.312 241.277 203.281 238.993 205.218Z" fill="white"/>
<path d="M260.411 204.001C259.085 204.909 258.126 206.139 257.538 207.688L252 222.871C251.458 224.422 251.52 225.651 252.184 226.559C252.848 227.466 254.017 227.921 255.691 227.921C261.175 227.921 265.102 227.8 267.472 227.557L268.7 223.489H259.055C258.448 223.489 258.063 223.344 257.903 223.054C257.742 222.763 257.785 222.278 258.033 221.6L259.795 216.769H269.805L271.262 212.774H261.252L262.643 208.96C262.881 208.306 263.187 207.833 263.56 207.543C263.933 207.252 264.423 207.107 265.03 207.107H274.676L276.428 203.002C274.235 202.761 270.396 202.639 264.912 202.639C263.237 202.639 261.737 203.093 260.411 204.001Z" fill="white"/>
<path d="M345.007 204.347C342.664 206.212 340.602 209.59 338.818 214.481C337.139 219.082 336.555 222.412 337.067 224.47C337.577 226.529 339.241 227.558 342.056 227.558C344.943 227.558 347.72 226.565 350.386 224.579L349.981 227.085H354.058L359.331 212.628H353.98L350.721 221.564C348.859 222.412 347.2 222.836 345.744 222.836C344.166 222.836 343.298 222.255 343.14 221.092C342.982 219.93 343.473 217.787 344.612 214.663C345.283 212.823 345.899 211.363 346.463 210.286C347.025 209.208 347.66 208.367 348.367 207.761C349.072 207.156 349.78 206.762 350.489 206.58C351.198 206.399 352.112 206.308 353.228 206.308C355.217 206.308 357.562 206.369 360.26 206.49L362.181 202.421C360.281 201.84 357.815 201.55 354.782 201.55C350.607 201.55 347.349 202.482 345.007 204.347Z" fill="white"/>
<path d="M375.649 208.56L374.965 216.224H368.704L373.61 208.56C373.781 208.294 374.023 207.894 374.339 207.361C374.654 206.829 374.88 206.441 375.018 206.199H376C375.916 206.562 375.799 207.349 375.649 208.56ZM379.635 202.021H374.394C373.933 202.021 373.472 202.155 373.01 202.421C372.549 202.688 372.19 203.038 371.934 203.475L356.08 227.085H361.758L365.976 220.51H374.603L374.025 227.085H379.667L381.035 203.475C381.145 202.506 380.679 202.021 379.635 202.021Z" fill="white"/>
<path d="M417.078 202.021H411.728C410.514 202.021 409.546 202.616 408.822 203.801L401.243 216.297C400.969 216.782 400.595 217.459 400.119 218.331C399.643 219.203 399.371 219.699 399.302 219.82H398.829C399.152 218.271 399.362 217.096 399.459 216.297L400.959 203.801C401.125 202.616 400.613 202.021 399.425 202.021H394.074C392.764 202.021 391.82 202.712 391.244 204.092L381.947 227.085H387.189L395.482 206.344H396.101L394.266 221.855C394.075 223.041 394.611 223.634 395.873 223.634H399.513C400.775 223.634 401.744 223.041 402.419 221.855L411.862 206.344H412.481L405.753 227.085H410.995L418.398 204.092C418.853 202.712 418.413 202.021 417.078 202.021Z" fill="white"/>
<path d="M424.032 203.276C422.706 204.184 421.748 205.413 421.159 206.963L415.621 222.146C415.079 223.696 415.141 224.925 415.805 225.833C416.468 226.741 417.637 227.195 419.312 227.195C424.796 227.195 428.723 227.074 431.093 226.832L432.321 222.764H422.676C422.069 222.764 421.684 222.618 421.524 222.328C421.363 222.037 421.406 221.553 421.654 220.875L423.416 216.044H433.426L434.883 212.048H424.873L426.264 208.234C426.503 207.58 426.808 207.108 427.181 206.817C427.554 206.527 428.044 206.381 428.651 206.381H438.297L440.049 202.277C437.856 202.035 434.017 201.914 428.533 201.914C426.859 201.914 425.359 202.368 424.032 203.276Z" fill="white"/>
<path d="M444.481 202.948C442.794 203.881 441.447 205.727 440.44 208.488C439.751 210.377 439.595 211.902 439.973 213.065C440.349 214.227 441.348 215.147 442.969 215.825L447.38 217.605C448.171 217.896 448.673 218.217 448.885 218.568C449.097 218.919 449.048 219.518 448.739 220.365C448.377 221.359 447.889 222.013 447.277 222.327C446.665 222.643 445.618 222.799 444.139 222.799C443.774 222.799 441.03 222.739 435.905 222.618L434.12 226.613C436.803 227.243 439.564 227.558 442.403 227.558C445.897 227.558 448.506 227.055 450.233 226.051C451.958 225.046 453.333 223.139 454.358 220.33C455.047 218.44 455.205 216.909 454.832 215.734C454.46 214.56 453.426 213.634 451.733 212.956L447.56 211.321C446.665 210.982 446.102 210.631 445.87 210.268C445.639 209.905 445.673 209.311 445.973 208.488C446.344 207.471 446.819 206.835 447.397 206.581C447.975 206.326 448.992 206.199 450.448 206.199C453.578 206.199 456.186 206.236 458.27 206.308L460.012 202.531C457.945 201.877 455.311 201.55 452.107 201.55C448.71 201.55 446.168 202.016 444.481 202.948Z" fill="white"/>
<g opacity="0.7">
<path d="M281.275 222.834C281.619 221.662 282.26 220.461 283.181 219.266C283.186 219.26 283.191 219.253 283.196 219.247L295.678 203.362H281.84C280.883 203.362 280.027 204.098 279.7 205.204L274.163 224.357C273.621 226.182 274.722 228.113 276.303 228.113H281.783C281.545 227.693 281.353 227.236 281.216 226.743C280.864 225.484 280.884 224.169 281.275 222.834Z" fill="url(#paint2_linear_4563_2136)"/>
<path d="M335.371 202.39H327.592L321.711 218.512H323.749C324.606 218.512 325.41 218.93 325.902 219.63C326.393 220.331 326.512 221.227 326.219 222.031L324.07 227.922H329.659C330.647 227.922 331.53 227.163 331.868 226.023L337.58 206.264C338.138 204.381 337.002 202.39 335.371 202.39Z" fill="url(#paint3_linear_4563_2136)"/>
</g>
<path d="M307.757 192.24L285.264 220.865C283.814 222.746 283.309 224.471 283.747 226.039C284.185 227.607 285.415 228.391 287.435 228.391H305.817L301.982 238.867H311.477L315.311 228.391H315.446L321.445 227.449L323.749 221.134H317.958L325.213 201.244H317.401L313.022 208.636L308.463 221.134H297.218C296.545 221.134 296.14 220.955 296.001 220.597C295.862 220.238 296.088 219.678 296.681 218.916L317.453 192.24H307.757Z" fill="url(#paint4_linear_4563_2136)"/>
<g opacity="0.5">
<path d="M325.901 219.629C326.392 220.33 326.51 221.226 326.218 222.03L324.068 227.921H329.658C330.646 227.921 331.529 227.162 331.866 226.021" fill="#192D37"/>
</g>
</g>
<defs>
<linearGradient id="paint0_linear_4563_2136" x1="307.506" y1="0" x2="307.506" y2="616.911" gradientUnits="userSpaceOnUse">
<stop stop-color="#00A984"/>
<stop offset="1" stop-color="#122232" stop-opacity="0"/>
</linearGradient>
<linearGradient id="paint1_linear_4563_2136" x1="-18.5293" y1="302.746" x2="738.591" y2="302.746" gradientUnits="userSpaceOnUse">
<stop stop-color="#00A984"/>
<stop offset="1" stop-color="#122232" stop-opacity="0"/>
</linearGradient>
<linearGradient id="paint2_linear_4563_2136" x1="284.851" y1="228.113" x2="284.851" y2="203.362" gradientUnits="userSpaceOnUse">
<stop stop-color="#0097FD"/>
<stop offset="1" stop-color="#00F8BE"/>
</linearGradient>
<linearGradient id="paint3_linear_4563_2136" x1="329.717" y1="227.922" x2="329.717" y2="202.39" gradientUnits="userSpaceOnUse">
<stop stop-color="#0097FD"/>
<stop offset="1" stop-color="#00F8BE"/>
</linearGradient>
<linearGradient id="paint4_linear_4563_2136" x1="304.403" y1="238.867" x2="304.403" y2="192.24" gradientUnits="userSpaceOnUse">
<stop stop-color="#0097FD"/>
<stop offset="1" stop-color="#00F8BE"/>
</linearGradient>
</defs>
</svg>
